<svg xmlns="http://www.w3.org/2000/svg"><symbol id="alert" viewBox="0 0 286.054 286.054">
    <path d="M143.027 0C64.04 0 0 64.04 0 143.027c0 78.996 64.04 143.027 143.027 143.027 78.996 0 143.027-64.022 143.027-143.027C286.054 64.04 222.022 0 143.027 0zm0 259.236c-64.183 0-116.209-52.026-116.209-116.209S78.844 26.818 143.027 26.818s116.209 52.026 116.209 116.209-52.026 116.209-116.209 116.209zm.009-196.51c-10.244 0-17.995 5.346-17.995 13.981v79.201c0 8.644 7.75 13.972 17.995 13.972 9.994 0 17.995-5.551 17.995-13.972V76.707c-.001-8.43-8.001-13.981-17.995-13.981zm0 124.997c-9.842 0-17.852 8.01-17.852 17.86 0 9.833 8.01 17.843 17.852 17.843s17.843-8.01 17.843-17.843c-.001-9.851-8.001-17.86-17.843-17.86z"/>
</symbol><symbol id="arrow" viewBox="0 0 23 14">
    <g fill="none" stroke-linecap="round" stroke-linejoin="round" stroke-width="2">
        <path class="cls-1" d="M13.6 7H22M5.5 7h4.2M1 7h.6M16 1l6 6-6 6"/>
    </g>
</symbol><symbol id="check" viewBox="0 0 22 22">
    <g fill="none" stroke-linecap="round" stroke-linejoin="round" stroke-width="2">
        <path d="M16.41 7.14l-7.82 7.72-3-3"/>
        <circle cx="11" cy="11" r="10"/>
    </g>
</symbol><symbol id="check2" viewBox="0 0 22 22">
    <g fill="none" stroke-linecap="round" stroke-linejoin="round" stroke-width="2">
        <path d="M16.41 7.14l-7.82 7.72-3-3"/>
        <circle stroke="#0191c8" cx="11" cy="11" r="10"/>
    </g>
</symbol><symbol id="cross-old" viewBox="0 0 330 330">
    <path d="M165 0C120.926 0 79.492 17.163 48.328 48.327c-64.334 64.333-64.334 169.011-.002 233.345C79.49 312.837 120.926 330 165 330c44.072 0 85.508-17.163 116.672-48.328 64.334-64.334 64.334-169.012 0-233.345C250.508 17.163 209.072 0 165 0zm74.246 239.245a14.956 14.956 0 0 1-10.607 4.394 14.948 14.948 0 0 1-10.605-4.394L165 186.213l-53.033 53.033a14.956 14.956 0 0 1-10.607 4.394 14.948 14.948 0 0 1-10.605-4.394c-5.859-5.857-5.859-15.355 0-21.213L143.787 165l-53.033-53.033c-5.859-5.857-5.859-15.355 0-21.213 5.857-5.857 15.355-5.857 21.213 0L165 143.787l53.031-53.033c5.857-5.857 15.355-5.857 21.213 0 5.859 5.857 5.859 15.355 0 21.213L186.213 165l53.033 53.032c5.858 5.858 5.858 15.356 0 21.213z"/>
</symbol><symbol id="eay" viewBox="0 0 24 18">
    <g fill="none" stroke-linecap="round" stroke-linejoin="round" stroke-width="2">
        <path d="M1 9s4-8 11-8 11 8 11 8-4 8-11 8S1 9 1 9z"/>
        <circle cx="12" cy="9" r="3"/>
    </g>
</symbol><symbol id="f-fb" viewBox="0 0 60 60">
    <path fill="currentColor" stroke="#eaedef" stroke-miterlimit="10" stroke-width="3" d="M1.5 30A28.5 28.5 0 1 1 30 58.5 28.55 28.55 0 0 1 1.5 30z"/>
    <path fill="#3b5998" d="M33.1 47.6V31.3h4.5l.6-5.6h-5.1v-2.8c0-1.5.1-2.3 2.2-2.3h2.8V15h-4.5c-5.4 0-7.3 2.7-7.3 7.3v3.4H23v5.6h3.4v16.3z"/>
</symbol><symbol id="f-g" viewBox="0 0 60 60">
    <path fill="currentColor" stroke="#eaedef" stroke-miterlimit="10" stroke-width="3" d="M1.5 30A28.5 28.5 0 1 1 30 58.5 28.55 28.55 0 0 1 1.5 30z"/>
    <path fill="#ea4335" d="M30 22a7.52 7.52 0 0 1 5 1.9l3.7-3.6A13 13 0 0 0 30 17a12.85 12.85 0 0 0-11.6 7.2l4.2 3.3A7.83 7.83 0 0 1 30 22z"/>
    <path fill="#4285f4" d="M42.5 30.3a11.15 11.15 0 0 0-.3-2.7H30v4.8h7.2a6 6 0 0 1-2.7 4.2l4.1 3.2a12.42 12.42 0 0 0 3.9-9.5z"/>
    <path fill="#fbbc05" d="M22.6 32.6a7.46 7.46 0 0 1-.4-2.6 10.87 10.87 0 0 1 .4-2.6l-4.2-3.3A13.15 13.15 0 0 0 17 30a12.43 12.43 0 0 0 1.4 5.8z"/>
    <path fill="#34a853" d="M30 43a12.7 12.7 0 0 0 8.6-3.1l-4.1-3.2A8.28 8.28 0 0 1 30 38a7.87 7.87 0 0 1-7.4-5.4l-4.2 3.3A12.94 12.94 0 0 0 30 43z"/>
</symbol><symbol id="f-in" viewBox="0 0 60 60">
    <path fill="currentColor" stroke="#eaedef" stroke-miterlimit="10" stroke-width="3" d="M1.5 30A28.5 28.5 0 1 1 30 58.5 28.55 28.55 0 0 1 1.5 30z"/>
    <path d="M30 17c-3.53 0-4 0-5.36.08a9.54 9.54 0 0 0-3.16.6 6.65 6.65 0 0 0-3.8 3.8 9.5 9.5 0 0 0-.6 3.16C17 26 17 26.47 17 30s0 4 .08 5.36a9.55 9.55 0 0 0 .6 3.16 6.65 6.65 0 0 0 3.8 3.8 9.55 9.55 0 0 0 3.16.6C26 43 26.47 43 30 43s4 0 5.36-.08a9.55 9.55 0 0 0 3.16-.6 6.66 6.66 0 0 0 3.8-3.8 9.64 9.64 0 0 0 .6-3.16C43 34 43 33.53 43 30s0-4-.08-5.36a9.63 9.63 0 0 0-.6-3.16 6.65 6.65 0 0 0-3.8-3.8 9.57 9.57 0 0 0-3.16-.6C34 17 33.53 17 30 17zm-1.17 2.34H30c3.47 0 3.88 0 5.25.07a7.2 7.2 0 0 1 2.41.45 4.31 4.31 0 0 1 2.47 2.47 7.18 7.18 0 0 1 .45 2.41c.06 1.37.08 1.78.08 5.25s0 3.88-.08 5.25a7.19 7.19 0 0 1-.45 2.41 4.31 4.31 0 0 1-2.47 2.47 7.17 7.17 0 0 1-2.41.45c-1.37.06-1.78.08-5.25.08s-3.88 0-5.25-.08a7.21 7.21 0 0 1-2.41-.45 4.31 4.31 0 0 1-2.47-2.47 7.18 7.18 0 0 1-.45-2.41c-.06-1.37-.07-1.78-.07-5.25s0-3.88.07-5.25a7.2 7.2 0 0 1 .45-2.41 4.31 4.31 0 0 1 2.47-2.47 7.18 7.18 0 0 1 2.41-.45c1.2-.05 1.66-.07 4.09-.07zm8.11 2.16a1.56 1.56 0 1 0 1.56 1.56 1.56 1.56 0 0 0-1.56-1.56zM30 23.32A6.68 6.68 0 1 0 36.68 30 6.68 6.68 0 0 0 30 23.32zm0 2.34A4.33 4.33 0 1 1 25.67 30 4.33 4.33 0 0 1 30 25.67z"/>
</symbol><symbol id="f-ok" viewBox="0 0 60 60">
    <path fill="currentColor" stroke="#eaedef" stroke-miterlimit="10" stroke-width="3" d="M1.5 30A28.5 28.5 0 1 1 30 58.5 28.55 28.55 0 0 1 1.5 30z"/>
    <path fill="#f68634" d="M30 15a7.9 7.9 0 0 0-8 7.7 8 8 0 0 0 16 0 7.9 7.9 0 0 0-8-7.7zm0 10.9a3.2 3.2 0 1 1 3.3-3.2 3.24 3.24 0 0 1-3.3 3.2z"/>
    <path fill="#f68634" d="M33.2 36.8l4.5 4.3a2.23 2.23 0 0 1 0 3.2 2.35 2.35 0 0 1-3.3 0L30 40.1l-4.4 4.3a2.84 2.84 0 0 1-1.7.7 2.34 2.34 0 0 1-1.7-.7 2.23 2.23 0 0 1 0-3.2l4.5-4.3A17.19 17.19 0 0 1 22 35a2.19 2.19 0 0 1-.7-3.1 2.29 2.29 0 0 1 3.2-.7 10.47 10.47 0 0 0 10.8 0 2.38 2.38 0 0 1 3.2.7 2.15 2.15 0 0 1-.7 3.1 15.77 15.77 0 0 1-4.6 1.8z"/>
</symbol><symbol id="f-tw" viewBox="0 0 60 60">
    <path fill="currentColor" stroke="#eaedef" stroke-miterlimit="10" stroke-width="3" d="M1.5 30A28.5 28.5 0 1 1 30 58.5 28.55 28.55 0 0 1 1.5 30z"/>
    <path fill="#55acee" d="M29.1 24.4l.1 1-1-.1a17 17 0 0 1-10-4.9L16.7 19l-.4 1a6 6 0 0 0 1.3 6.3c.8.9.7 1-.8.5-.5-.2-.9-.3-1-.2a8.71 8.71 0 0 0 .8 2.8 6.36 6.36 0 0 0 2.9 2.7l1 .5h-1.2c-1.2 0-1.2 0-1.1.5.4 1.4 2.1 2.8 3.9 3.5l1.3.4-1.1.7a12.46 12.46 0 0 1-5.6 1.6 4.11 4.11 0 0 0-1.7.2 18.79 18.79 0 0 0 4 1.9 17.51 17.51 0 0 0 13.8-1.6 18.72 18.72 0 0 0 7-8.2 22.4 22.4 0 0 0 1.4-6.4c0-1 .1-1.1 1.2-2.3.7-.7 1.3-1.4 1.5-1.6.2-.4.2-.4-.9 0-1.8.6-2 .6-1.2-.4a5.39 5.39 0 0 0 1.4-2.3c0-.1-.3 0-.7.2a17.08 17.08 0 0 1-1.8.7l-1.1.4-1-.7a7.48 7.48 0 0 0-1.8-.9 6.63 6.63 0 0 0-3.7.1 5.87 5.87 0 0 0-4 6z"/>
</symbol><symbol id="f-vk" viewBox="0 0 60 60">
    <path fill="currentColor" stroke="#eaedef" stroke-miterlimit="10" stroke-width="3" d="M1.5 30A28.5 28.5 0 1 1 30 58.5 28.55 28.55 0 0 1 1.5 30z"/>
    <path fill="#4c6c91" d="M31.6 39.8a2 2 0 0 0 .9-.4 1.27 1.27 0 0 0 .3-.8s0-2.5 1.2-2.9 2.7 2.4 4.3 3.5a2.94 2.94 0 0 0 2.1.6l4.3-.1s2.2-.1 1.2-1.9a14.1 14.1 0 0 0-3.2-3.6c-2.7-2.4-2.3-2 .9-6.3 2-2.6 2.8-4.1 2.5-4.8s-1.7-.5-1.7-.5h-4.8a1.76 1.76 0 0 0-.6.1 1.08 1.08 0 0 0-.4.5 31.66 31.66 0 0 1-1.8 3.7c-2.1 3.6-3 3.8-3.3 3.5-.8-.5-.6-2.1-.6-3.2 0-3.5.5-4.9-1-5.3a8.82 8.82 0 0 0-2.2-.2 10.86 10.86 0 0 0-4 .4c-.5.3-1 .8-.7.9a2.06 2.06 0 0 1 1.4.7 4.49 4.49 0 0 1 .5 2.1s.3 4.1-.7 4.6c-.6.3-1.5-.4-3.4-3.6a27.61 27.61 0 0 1-1.7-3.5 1.08 1.08 0 0 0-.4-.5 2.6 2.6 0 0 0-.7-.3h-4.6s-.7 0-.9.3a1 1 0 0 0 0 .8s3.6 8.2 7.6 12.4a10.83 10.83 0 0 0 7.9 3.5h1.6z"/>
</symbol><symbol id="filter" viewBox="0 0 22 20">
    <path fill="none" stroke="#3b4256" stroke-linecap="round" stroke-linejoin="round" stroke-width="2" d="M21 1H1l8 9.46V17l4 2v-8.54L21 1z"/>
</symbol><symbol id="globus" viewBox="0 0 22 22">
    <g fill="none" stroke-linecap="round" stroke-linejoin="round" stroke-width="2">
        <circle cx="11" cy="11" r="10"/>
        <path d="M1 11h20M11 1a15.36 15.36 0 0 1 4 10 15.36 15.36 0 0 1-4 10 15.36 15.36 0 0 1-4-10 15.36 15.36 0 0 1 4-10z"/>
    </g>
</symbol><symbol id="location" viewBox="0 0 20 24.2">
    <path fill="none" stroke="currentColor" stroke-miterlimit="10" stroke-width="2" d="M10 1a9 9 0 0 0-9 9c0 7 9 13 9 13s9-6 9-13a9 9 0 0 0-9-9zm0 12a3 3 0 1 1 3-3 3 3 0 0 1-3 3z"/>
</symbol><symbol id="logo-small" viewBox="0 0 44.1 42.3">
    <path d="M26 14.1h2.7a1.26 1.26 0 0 1 1.3 1.3v2.7a1.26 1.26 0 0 1-1.3 1.3H26a1.26 1.26 0 0 1-1.3-1.3v-2.7a1.32 1.32 0 0 1 1.3-1.3zM26 7.1h2.7A1.26 1.26 0 0 1 30 8.4v2.7a1.26 1.26 0 0 1-1.3 1.3H26a1.26 1.26 0 0 1-1.3-1.3V8.4A1.32 1.32 0 0 1 26 7.1zM26 0h2.7A1.26 1.26 0 0 1 30 1.3V4a1.26 1.26 0 0 1-1.3 1.3H26A1.26 1.26 0 0 1 24.7 4V1.3A1.32 1.32 0 0 1 26 0zM33 14.1h2.7a1.26 1.26 0 0 1 1.3 1.3v2.7a1.26 1.26 0 0 1-1.3 1.3H33a1.26 1.26 0 0 1-1.3-1.3v-2.7a1.4 1.4 0 0 1 1.3-1.3zM33 7.1h2.7A1.26 1.26 0 0 1 37 8.4v2.7a1.26 1.26 0 0 1-1.3 1.3H33a1.26 1.26 0 0 1-1.3-1.3V8.4A1.4 1.4 0 0 1 33 7.1zM33 0h2.7A1.26 1.26 0 0 1 37 1.3V4a1.26 1.26 0 0 1-1.3 1.3H33A1.26 1.26 0 0 1 31.7 4V1.3A1.4 1.4 0 0 1 33 0zM40.1 14.1h2.7a1.26 1.26 0 0 1 1.3 1.3v2.7a1.26 1.26 0 0 1-1.3 1.3h-2.7a1.26 1.26 0 0 1-1.3-1.3v-2.7a1.26 1.26 0 0 1 1.3-1.3zM40.1 7.1h2.7a1.26 1.26 0 0 1 1.3 1.3v2.7a1.26 1.26 0 0 1-1.3 1.3h-2.7a1.26 1.26 0 0 1-1.3-1.3V8.4a1.26 1.26 0 0 1 1.3-1.3zM40.1 0h2.7a1.26 1.26 0 0 1 1.3 1.3V4a1.26 1.26 0 0 1-1.3 1.3h-2.7A1.26 1.26 0 0 1 38.8 4V1.3A1.26 1.26 0 0 1 40.1 0zM16.8 22.8H2.7A2.69 2.69 0 0 0 0 25.5a2.61 2.61 0 0 0 2.7 2.6h11.4v11.5a2.7 2.7 0 1 0 5.4 0V25.5a2.69 2.69 0 0 0-2.7-2.7zM27.3 22.8h14.1a2.69 2.69 0 0 1 2.7 2.7 2.61 2.61 0 0 1-2.7 2.6H30v11.5a2.7 2.7 0 1 1-5.4 0V25.5a2.82 2.82 0 0 1 2.7-2.7zM19.5 16.8V2.7A2.69 2.69 0 0 0 16.8 0a2.61 2.61 0 0 0-2.6 2.7v11.4H2.7a2.7 2.7 0 0 0 0 5.4h14.1a2.82 2.82 0 0 0 2.7-2.7z"/>
</symbol><symbol id="logo" viewBox="0 0 367.79 42.3">
    <g fill="#08aeea">
        <path d="M26 14.1h2.7a1.26 1.26 0 0 1 1.3 1.3v2.7a1.26 1.26 0 0 1-1.3 1.3H26a1.26 1.26 0 0 1-1.3-1.3v-2.7a1.32 1.32 0 0 1 1.3-1.3zM26 7.1h2.7A1.26 1.26 0 0 1 30 8.4v2.7a1.26 1.26 0 0 1-1.3 1.3H26a1.26 1.26 0 0 1-1.3-1.3V8.4A1.32 1.32 0 0 1 26 7.1zM26 0h2.7A1.26 1.26 0 0 1 30 1.3V4a1.26 1.26 0 0 1-1.3 1.3H26A1.26 1.26 0 0 1 24.7 4V1.3A1.32 1.32 0 0 1 26 0zM33 14.1h2.7a1.26 1.26 0 0 1 1.3 1.3v2.7a1.26 1.26 0 0 1-1.3 1.3H33a1.26 1.26 0 0 1-1.3-1.3v-2.7a1.4 1.4 0 0 1 1.3-1.3zM33 7.1h2.7A1.26 1.26 0 0 1 37 8.4v2.7a1.26 1.26 0 0 1-1.3 1.3H33a1.26 1.26 0 0 1-1.3-1.3V8.4A1.4 1.4 0 0 1 33 7.1zM33 0h2.7A1.26 1.26 0 0 1 37 1.3V4a1.26 1.26 0 0 1-1.3 1.3H33A1.26 1.26 0 0 1 31.7 4V1.3A1.4 1.4 0 0 1 33 0zM40.1 14.1h2.7a1.26 1.26 0 0 1 1.3 1.3v2.7a1.26 1.26 0 0 1-1.3 1.3h-2.7a1.26 1.26 0 0 1-1.3-1.3v-2.7a1.26 1.26 0 0 1 1.3-1.3zM40.1 7.1h2.7a1.26 1.26 0 0 1 1.3 1.3v2.7a1.26 1.26 0 0 1-1.3 1.3h-2.7a1.26 1.26 0 0 1-1.3-1.3V8.4a1.26 1.26 0 0 1 1.3-1.3zM40.1 0h2.7a1.26 1.26 0 0 1 1.3 1.3V4a1.26 1.26 0 0 1-1.3 1.3h-2.7A1.26 1.26 0 0 1 38.8 4V1.3A1.26 1.26 0 0 1 40.1 0zM16.8 22.8H2.7A2.69 2.69 0 0 0 0 25.5a2.61 2.61 0 0 0 2.7 2.6h11.4v11.5a2.7 2.7 0 1 0 5.4 0V25.5a2.69 2.69 0 0 0-2.7-2.7zM27.3 22.8h14.1a2.69 2.69 0 0 1 2.7 2.7 2.61 2.61 0 0 1-2.7 2.6H30v11.5a2.7 2.7 0 1 1-5.4 0V25.5a2.82 2.82 0 0 1 2.7-2.7zM19.5 16.8V2.7A2.69 2.69 0 0 0 16.8 0a2.61 2.61 0 0 0-2.6 2.7v11.4H2.7a2.7 2.7 0 0 0 0 5.4h14.1a2.82 2.82 0 0 0 2.7-2.7z"/>
    </g>
    <g fill="#3b4256">
        <path d="M57.57 39.22h-4.82V28.9h2.11c2.09-1.31 2.77-3.75 3-7.71l1.07-17.41h20V28.9h3.69v10.32h-4.8v-5.85H57.57zm3.18-10.48v.16h12.92V8.23H63.6l-.84 13.29c-.22 3.32-.63 5.6-2.01 7.22zM105.87 33.37V8.23h-9.41l-.8 13.68c-.45 7.73-2.83 11.69-8.33 11.69a7 7 0 0 1-1.93-.25v-4.63a6.61 6.61 0 0 0 1.27.14c2.77 0 3.81-2.36 4.08-7.26l1-17.82h19.44v29.59zM121.19 33.37h-5.95l8-11.65a8.66 8.66 0 0 1-6.58-8.55c0-5.58 4.06-9.39 10.27-9.39h11.79v29.59h-5.25V22.44h-4.88zm12.32-25.28h-5.64c-3.63 0-5.78 1.89-5.78 5.11s2.13 5.11 5.78 5.11h5.64z"/>
    </g>
    <g fill="#08aeea">
        <path d="M162.59 33.37V8.27h-14v25.1h-5.31V3.78h24.61v29.59zM190.44 25.72h-10.89L177 33.37h-5.46l10.5-29.59h6l10.5 29.59H193zm-9.66-4.08h8.41L185.07 9h-.14zM225.76 39.22v-5.85h-23.5V3.78h5.29v25.14h14V3.78h5.27v25.14h3.69v10.3zM254.26 12.09H254l-14.38 21.28h-5.13V3.78h5.27v21.35h.24l14.38-21.35h5.13v29.59h-5.25zM284.45 33.37h-19.16V3.78h19.15v4.47h-13.85v8h13.1v4.2h-13.1v8.45h13.86zM309.28 33.37V20.53h-14.4v12.84h-5.28V3.78h5.29v12.3h14.4V3.78h5.27v29.59zM327.82 33.37V8.25h-9V3.78h23.28v4.47h-9v25.12zM359.69 25.72H348.8l-2.52 7.65h-5.46l10.5-29.59h6l10.5 29.59h-5.58zM350 21.64h8.41L354.32 9h-.14z"/>
    </g>
</symbol><symbol id="ls-doctor" viewBox="0 0 1100 472.82">
    <path fill="#edf6fc" d="M107.81 149.72a23.8 23.8 0 0 0 23.8 23.8h147.18a17.72 17.72 0 0 1 17.72 17.72A17.72 17.72 0 0 1 278.79 209H31.07A31.07 31.07 0 0 0 0 240a31.07 31.07 0 0 0 31.07 31.07H374.9A19.92 19.92 0 0 1 394.82 291 19.92 19.92 0 0 1 375 310.94l-260.75 1.59a32.29 32.29 0 0 0-32.07 32.29 32.29 32.29 0 0 0 32.29 32.29h214v95.71h562v-55.76l179.11.13a30.38 30.38 0 0 0 30.42-30.34 30.38 30.38 0 0 0-30.38-30.38h-111a24.86 24.86 0 0 1-24.86-24.86 24.86 24.86 0 0 1 24.86-24.86h13.56a31.38 31.38 0 0 0 31.38-31.38A31.38 31.38 0 0 0 972.18 244H763.5a22.17 22.17 0 0 1-22.17-22.14 22.17 22.17 0 0 1 22.17-22.17h107.07a36.84 36.84 0 0 0 36.84-36.84A36.84 36.84 0 0 0 870.57 126h-739a23.8 23.8 0 0 0-23.76 23.72z"/>
    <g fill="#fff">
        <rect x="538.87" y="94.53" width="3.6" height="3.6" rx=".86" ry=".86"/>
        <rect x="538.87" y="89.73" width="3.6" height="3.6" rx=".86" ry=".86"/>
        <rect x="538.87" y="84.93" width="3.6" height="3.6" rx=".86" ry=".86"/>
        <rect x="543.68" y="94.53" width="3.6" height="3.6" rx=".86" ry=".86"/>
        <rect x="543.68" y="89.73" width="3.6" height="3.6" rx=".86" ry=".86"/>
        <rect x="543.68" y="84.93" width="3.6" height="3.6" rx=".86" ry=".86"/>
        <rect x="548.47" y="94.53" width="3.6" height="3.6" rx=".86" ry=".86"/>
        <rect x="548.47" y="89.73" width="3.6" height="3.6" rx=".86" ry=".86"/>
        <rect x="548.47" y="84.93" width="3.6" height="3.6" rx=".86" ry=".86"/>
        <path d="M533.48 100.53h-9.6a1.8 1.8 0 0 0 0 3.6h7.8v-1.8a1.8 1.8 0 0 1 1.8-1.8zM533.48 104.13h-1.8v7.8a1.8 1.8 0 0 0 3.6 0v-9.6a1.8 1.8 0 0 1-1.8 1.8z"/>
        <path d="M535.28 102.33a1.8 1.8 0 0 0-3.6 0v1.8h1.8a1.8 1.8 0 0 0 1.8-1.8zM531.68 96.33v-1.8h-7.8a1.8 1.8 0 0 0 0 3.6h9.6a1.8 1.8 0 0 1-1.8-1.8zM533.48 84.93a1.8 1.8 0 0 0-1.8 1.8v7.8h1.8a1.8 1.8 0 0 1 1.8 1.8v-9.6a1.8 1.8 0 0 0-1.8-1.8z"/>
        <path d="M533.48 94.53h-1.8v1.8a1.8 1.8 0 1 0 1.8-1.8zM550.27 100.53h-9.6a1.8 1.8 0 0 1 1.8 1.8v1.8h7.8a1.8 1.8 0 0 0 0-3.6z"/>
        <path d="M538.87 102.33v9.6a1.8 1.8 0 0 0 3.6 0v-7.8h-1.8a1.8 1.8 0 0 1-1.8-1.8z"/>
        <path d="M540.67 100.53a1.8 1.8 0 0 0 0 3.6h1.8v-1.8a1.8 1.8 0 0 0-1.8-1.8z"/>
    </g>
    <path fill="#3b4256" d="M706.77 437v15.35H340.68V255.82c0-8.47 6.48-15.31 14.41-15.31h337.26c8 0 14.42 6.84 14.42 15.31z"/>
    <path fill="#9cdff7" d="M358.17 255.25h331.11v182.33H358.17z"/>
    <path fill="#e6e7e8" d="M723.65 454.6a2.43 2.43 0 0 0-2.43-2.43h-395a2.42 2.42 0 0 0-2.43 2.41l.13 5.48h399.6z"/>
    <path fill="#97a4b1" d="M323.92 460.08l4.24 5.45c1.29 1.51 2.22 2.43 4.32 2.43h383.15c1.33 0 2.42-.76 3.68-2.43l4.21-5.45z"/>
    <path fill="#3b4256" opacity=".2" d="M724.2 465.52l4.21-5.45.13-5.48a2.43 2.43 0 0 0-2.43-2.43h-14.46v-170h-31.19l-29.1 29.09v25.88h-11.61a4.74 4.74 0 0 0-4.75 4.74v12.29h-3.4a2.76 2.76 0 0 0-2.74 3l10.74 108.3a2.76 2.76 0 0 0 2.75 2.49h78.18c1.32-.01 2.41-.77 3.67-2.43z"/>
    <path fill="#97a4b1" d="M462.35 452.17V455c0 .74 1.21 1.33 2.7 1.33h105.73c1.49 0 2.7-.6 2.7-1.33v-2.81z"/>
    <path fill="#fce38a" d="M646.64 337.15h155.92a4.75 4.75 0 0 1 4.75 4.75v41.75a4.74 4.74 0 0 1-4.74 4.74H646.65a4.75 4.75 0 0 1-4.75-4.75v-41.75a4.74 4.74 0 0 1 4.74-4.74z"/>
    <path fill="#f1f2f2" d="M687.36 282.17l-29.1 29.09v70.86H792.2v-99.95H687.36z"/>
    <path fill="#e0632f" d="M687.36 311.26v-29.09l-29.1 29.09h29.1z"/>
    <path fill="#fce38a" d="M798.2 468h-149a2.76 2.76 0 0 1-2.75-2.49l-10.7-108.25a2.76 2.76 0 0 1 2.51-3h48a2.76 2.76 0 0 1 1.73.6l17.22 14.51a2.75 2.75 0 0 0 1.79.63h101.86a2.76 2.76 0 0 1 2.74 3l-10.66 92.47a2.76 2.76 0 0 1-2.74 2.53z"/>
    <path fill="#bdaa68" d="M808.85 370h-3.35l-10.4 90.17a2.76 2.76 0 0 1-2.74 2.44H646.21l.28 2.86a2.76 2.76 0 0 0 2.75 2.48h149a2.76 2.76 0 0 0 2.74-2.44l10.65-92.44a2.76 2.76 0 0 0-2.43-3.07z"/>
    <circle fill="#fff" cx="725.23" cy="423.55" r="27.17"/>
    <path fill="#515775" d="M739.75 417.38h-8.35v-8.36h-12.33v8.36h-8.36v12.32h8.36v8.36h12.33v-8.36h8.35v-12.32z"/>
    <path fill="#e6e7e8" d="M725.33 307.17h56.52v4.13h-56.52zM725.33 319.69h56.52v4.13h-56.52zM725.33 332.21h56.52v4.13h-56.52z"/>
    <path fill="#3b4256" opacity=".2" d="M553.26 437.56h-59.28l-5.9-197.02h71.06l-5.88 197.02z"/>
    <path fill="#e6e7e8" d="M682.01 344.74h99.85v4.13h-99.85zM701.48 357.26h80.38v4.13h-80.38z"/>
    <path fill="#9cdff7" d="M700.25 343a18.21 18.21 0 1 1 18.22-18.21A18.21 18.21 0 0 1 700.25 343zm0-32.3a14.08 14.08 0 1 0 14.09 14.08 14.08 14.08 0 0 0-14.09-14.11z"/>
    <path fill="#9cdff7" d="M699.93 325a6.22 6.22 0 1 1 6.21-6.23 6.22 6.22 0 0 1-6.21 6.23zm0-8.3a2.09 2.09 0 1 0 2.07 2.12 2.09 2.09 0 0 0-2.07-2.12z"/>
    <path fill="#9cdff7" d="M709 336.71h-4.13v-3.89a4.67 4.67 0 1 0-9.34 0v3.87h-4.13v-3.87a8.8 8.8 0 0 1 17.59 0z"/>
    <g fill="#ffdfbd">
        <path d="M517.59 171.65h30l-.12-5.34s10.25-5.55 15.53-9.08c3.91-2.6 6.55-2.83 6.55-11.56l-52.94-14.42zM561.06 84.58A6.09 6.09 0 0 0 569 88l14.13-5.58a6.08 6.08 0 0 0 3.43-7.89 6.08 6.08 0 0 0-7.89-3.43l-14.12 5.58a6.09 6.09 0 0 0-3.49 7.9zM564.47 127.75a5.28 5.28 0 0 0 6.84 3l5.76-2.23a5.28 5.28 0 0 0 3-6.84 5.28 5.28 0 0 0-6.84-3l-5.76 2.24a5.27 5.27 0 0 0-3 6.82zM560.34 115.2a5.79 5.79 0 0 0 7.51 3.26l8.89-3.47a5.8 5.8 0 0 0 3.26-7.52 5.8 5.8 0 0 0-7.53-3.26l-8.89 3.47a5.79 5.79 0 0 0-3.26 7.51zM554.53 102.94a6.09 6.09 0 0 0 7.9 3.42l14.13-5.54a6.09 6.09 0 0 0 3.42-7.9 6.09 6.09 0 0 0-7.9-3.42L558 95a6.09 6.09 0 0 0-3.42 7.9z"/>
    </g>
    <rect fill="#97a4b1" x="505.41" y="37.66" width="66.2" height="120.41" rx="4.84" ry="4.84"/>
    <path fill="#9cdff7" d="M508.02 49.34h60.97v95.13h-60.97z"/>
    <path fill="#3b4256" opacity=".2" d="M512.46 101.5l-2.1 3.46v51.15a5.93 5.93 0 0 0 .36 2h22.49V150.76c0-9.43-7-20.7-13.89-25.93l.07-.19 2.34-10.86s6.74-.35 10.23-.35 8-9.5 5.15-11.89z"/>
    <circle fill="#3b4256" cx="551.25" cy="43.25" r=".74"/>
    <rect fill="#3b4256" x="530.58" y="42.79" width="16.45" height=".92" rx=".34" ry=".34"/>
    <path fill="#ffe5ca" d="M501.55 170.53V116.9l9.37-15.41h24.7c2.89 2.39-1.66 11.89-5.15 11.89s-10.23.35-10.23.35l-2.34 10.86z"/>
    <path fill="#ffe5ca" d="M501.55 174.65c0 9.49 4.3 6.88 12.32 6.88 14.82.33 17.85-15.47 17.85-25v-5.81c0-12.75-12.78-28.88-20.79-28.88-8 0-8.22 7.7-8.22 17.18z"/>
    <path fill="#97a4b1" d="M494.3 170.53h59.28v267.04H494.3z"/>
    <path fill="#55c9af" d="M553.58 102.49l5.14-27.83a52.94 52.94 0 1 1 20.18 23.16z"/>
    <circle fill="#77d4bf" cx="606.51" cy="53.16" r="37.89"/>
    <path fill="#fff" d="M582.59 42.95h13.83V29.13h20.4v13.82h13.83v20.4h-13.83v13.84h-20.4V63.35h-13.83v-20.4z"/>
    <rect fill="#3b4256" x="146.84" y="292.28" width="141.13" height="175.29" rx="6.2" ry="6.2"/>
    <path fill="#fff" d="M161.29 307.56h112.23v144.73H161.29z"/>
    <path fill="#fdeeb9" d="M217.41 279.82a17.62 17.62 0 0 0-17.62 17.62c0 9.73 35.23 9.73 35.23 0a17.62 17.62 0 0 0-17.61-17.62zm0 8.13a2.48 2.48 0 1 1 2.48-2.48 2.47 2.47 0 0 1-2.48 2.44z"/>
    <path fill="#fde9a1" opacity=".3" d="M235 297.41a17.49 17.49 0 0 0-.24-2.39H200a17.49 17.49 0 0 0-.24 2.39c.03 9.73 35.24 9.73 35.24 0z"/>
    <path fill="#fce38a" d="M197.37 296.61h40.07a15 15 0 0 1 15 15v10.34h-70.1v-10.33a15 15 0 0 1 15-15z"/>
    <path fill="#bdaa68" d="M182.35 314.34h70.1v7.62h-70.1z"/>
    <path fill="#fde9a1" d="M249.3 304.77a18.55 18.55 0 0 0-3.55-3.81h-56.69a18.54 18.54 0 0 0-3.55 3.81z"/>
    <path fill="#e0632f" d="M172.3 334.22h31.15v31.15H172.3z"/>
    <g fill="#e6e7e8">
        <path d="M209.03 334.22h53.71v5.81h-53.71zM209.03 346.89h53.71v5.81h-53.71zM209.03 359.56h53.71v5.81h-53.71zM172.3 372.23h90.44v5.81H172.3zM172.3 384.9h90.44v5.81H172.3zM172.3 397.57h90.44v5.81H172.3zM172.3 410.24h90.44v5.81H172.3zM172.3 422.91h90.44v5.81H172.3zM172.3 435.58h90.44v5.81H172.3z"/>
    </g>
    <path fill="#97a4b1" d="M391 334.72v-34.29a3.49 3.49 0 0 0-3.49-3.49h-74.44a3.49 3.49 0 0 0-3.49 3.49v34.29zm-7-1l-67.62-.07v-30l67.62.07z"/>
    <path fill="#e68259" d="M454 460.14a7.43 7.43 0 0 1-7.44 7.42h-189a7.43 7.43 0 0 1-7.43-7.42V324a7.43 7.43 0 0 1 7.43-7.42h189A7.43 7.43 0 0 1 454 324z"/>
    <path fill="#e0632f" opacity=".8" d="M451.49 462.69h-189a7.43 7.43 0 0 1-7.43-7.43V319.13a7.34 7.34 0 0 1 .36-2.18 7.4 7.4 0 0 0-5.24 7.06v136.13a7.43 7.43 0 0 0 7.43 7.42h189a7.42 7.42 0 0 0 7.08-5.25 7.3 7.3 0 0 1-2.2.38z"/>
    <path fill="#e0632f" opacity=".8" d="M446.61 316.58h-8.13a7.43 7.43 0 0 1 7.44 7.42v136.14a7.43 7.43 0 0 1-7.44 7.42h8.13a7.43 7.43 0 0 0 7.44-7.42V324a7.43 7.43 0 0 0-7.43-7.43z"/>
    <path fill="#97a4b1" d="M263.79 311.11h29.15v5.64h-29.15zM407.67 311.11h29.14v5.64h-29.14z"/>
    <circle fill="#fdeeb9" cx="351.91" cy="392.1" r="39.12"/>
    <path fill="#3b4256" opacity=".2" d="M260.13 458.61l.13-35.57 17.51.06v-7.59h-9.24v-7.49l.35-96.89h-4.59v5.48h-6.23a7.31 7.31 0 0 0-2.19.37 7.4 7.4 0 0 0-3.69 2.57l-.08.1a7.25 7.25 0 0 0-1 1.86c0 .12-.08.24-.11.36a7.2 7.2 0 0 0-.36 2.16v136.11a7.29 7.29 0 0 0 2 5.06c.06.06.1.13.16.19a7.41 7.41 0 0 0 4.87 2.14h10.65v-8.93z"/>
    <circle fill="#fde9a1" cx="351.91" cy="392.1" r="27.66"/>
    <path fill="#fff" d="M366.49 385.94h-8.32v-8.32H345.9v8.32h-8.31v12.26h8.31v8.32h12.27v-8.32h8.32v-12.26z"/>
    <path fill="#e6e7e8" d="M244.46 220.87l3.22 3.79-.24 65.94-3.23-.02.25-69.71z"/>
    <path fill="#d1d3d4" d="M244.46 220.87l1.61 1.89-.25 67.84-1.61-.02.25-69.71zM239.659 319.892l.08-21.91 12.17.044-.08 21.91z"/>
    <path fill="#e6e7e8" d="M226.662 419.123l.412-112.309 37.41.137-.412 112.31z"/>
    <path fill="#55c9af" d="M228.889 368.702l.219-59.8 33.4.123-.22 59.8z"/>
    <path fill="#409783" d="M228.86 368.74l.22-59.8 12.77.047-.22 59.8z"/>
    <path fill="#e68259" d="M242.25 278.12l7.33.45 2.3 19.47-12.17-.04 2.54-19.88z"/>
    <path fill="#e0632f" d="M237.921 298.008l.015-3.96 15.48.057-.015 3.96z"/>
    <path fill="#d1d3d4" d="M234.818 461.084l.338-92.37 20.87.077-.339 92.37z"/>
    <path fill="#f1f2f2" d="M252.844 461.165l.323-92.37 2.81.01-.323 92.37zM243.813 461.135l.322-92.37 2.81.01-.322 92.37zM234.811 461.095l.323-92.37 2.8.01-.323 92.37z"/>
    <path fill="#d1d3d4" d="M226.68 411.64l37.42-3.65-.04 11.28-37.4-.14.02-7.49z"/>
    <path fill="#e6e7e8" d="M217.413 422.886l.028-7.59 55.88.204-.029 7.59z"/>
    <path fill="#231f20" opacity=".3" d="M234.799 458.527l.014-3.92 20.86.076-.014 3.92z"/>
    <path fill="#e6e7e8" d="M226.51 467.41l.032-8.93 37.44.137-.033 8.93z"/>
    <path fill="#53667f" d="M228.863 376.416l.05-13.43 33.4.122-.05 13.43z"/>
    <g fill="#3b4256">
        <path d="M228.916 369.694l.004-.99 33.4.122-.004.99zM226.622 320.697l.007-1.68 20.19.074-.007 1.68zM226.57 327.49l9.7.03v1.68l-9.71-.03.01-1.68zM226.54 335.95l9.7.04-.01 1.69-9.7-.05.01-1.68zM226.523 346.089l.006-1.68 9.7.037-.006 1.68zM226.482 354.561l.006-1.68 20.19.074-.006 1.68zM226.422 363.061l.006-1.68 9.7.036-.006 1.68zM226.442 371.486l.007-1.68 9.7.038-.007 1.68zM226.412 379.959l.006-1.68 9.7.037-.006 1.68zM226.371 388.425l.006-1.68 20.19.074-.006 1.68zM226.302 396.907l.005-1.68 9.7.034-.005 1.68zM226.271 405.377l.006-1.68 9.7.034-.006 1.68z"/>
    </g>
    <path fill="#b4ebf7" d="M867.4 332.77h13.85v20.78H867.4z"/>
    <path fill="#d2f3fa" d="M867.4 340.83l8.07-8.06h-5.9l-2.17 2.16v5.9zM867.4 345.34l12.58-12.57h-2.95l-9.63 9.62v2.95z"/>
    <path fill="#b4ebf7" d="M867.63 399.27h13.85v20.78h-13.85z"/>
    <path fill="#53667f" d="M865.74 418.48h17.32v3.15h-17.32z"/>
    <path fill="#d2f3fa" d="M867.63 407.34l8.07-8.07h-5.9l-2.17 2.17v5.9zM867.63 411.85l12.58-12.58h-2.95l-9.63 9.63v2.95z"/>
    <path fill="#b4ebf7" d="M841.51 399.27h13.85v20.78h-13.85z"/>
    <path fill="#53667f" d="M839.63 418.48h17.32v3.15h-17.32z"/>
    <path fill="#d2f3fa" d="M841.51 407.34l8.07-8.07h-5.9l-2.17 2.17v5.9zM841.51 411.85l12.58-12.58h-2.95l-9.63 9.63v2.95z"/>
    <path fill="#b4ebf7" d="M820.1 399.27h13.85v20.78H820.1z"/>
    <path fill="#53667f" d="M818.21 418.48h17.32v3.15h-17.32z"/>
    <path fill="#d2f3fa" d="M820.1 407.34l8.07-8.07h-5.91l-2.16 2.17v5.9zM820.1 411.85l12.58-12.58h-2.96l-9.62 9.63v2.95z"/>
    <path fill="#b4ebf7" d="M841.51 432.53h13.85v20.78h-13.85z"/>
    <path fill="#53667f" d="M839.63 451.74h17.32v3.15h-17.32z"/>
    <path fill="#d2f3fa" d="M841.51 440.6l8.07-8.08h-5.9l-2.17 2.17v5.91zM841.51 445.11l12.58-12.59h-2.95l-9.63 9.63v2.96z"/>
    <path fill="#b4ebf7" d="M820.1 432.53h13.85v20.78H820.1z"/>
    <path fill="#53667f" d="M818.21 451.74h17.32v3.15h-17.32z"/>
    <path fill="#d2f3fa" d="M820.1 440.6l8.07-8.08h-5.91l-2.16 2.17v5.91zM820.1 445.11l12.58-12.59h-2.96l-9.62 9.63v2.96z"/>
    <path fill="#b4ebf7" d="M888.57 399.27h13.85v20.78h-13.85z"/>
    <path fill="#53667f" d="M886.68 418.48H904v3.15h-17.32z"/>
    <path fill="#d2f3fa" d="M888.57 407.34l8.07-8.07h-5.9l-2.17 2.17v5.9zM888.57 411.85l12.58-12.58h-2.95l-9.63 9.63v2.95z"/>
    <path fill="#53667f" d="M907.62 418.48h17.32v3.15h-17.32z"/>
    <path fill="#b4ebf7" d="M867.75 432.53h13.85v20.78h-13.85z"/>
    <path fill="#53667f" d="M865.86 451.74h17.32v3.15h-17.32z"/>
    <path fill="#d2f3fa" d="M867.75 440.6l8.06-8.08h-5.9l-2.16 2.17v5.91zM867.75 445.11l12.57-12.59h-2.95l-9.62 9.63v2.96z"/>
    <path fill="#b4ebf7" d="M888.46 427.37h34.91v34.19h-34.91z"/>
    <path fill="#87b0b9" d="M905.12 427.37h1.58v34.19h-1.58z"/>
    <path fill="#d2f3fa" d="M904.8 427.37h.8v34.19h-.8z"/>
    <circle fill="#53667f" cx="901.15" cy="445.1" r="1.28"/>
    <circle fill="#53667f" cx="912.04" cy="445.1" r="1.28"/>
    <circle fill="#3b4256" cx="795.56" cy="435.92" r="9.2"/>
    <path fill="#3b4256" opacity=".2" d="M831.67 464l.16-123.4a4.27 4.27 0 0 0-.75-2.33 4.48 4.48 0 0 0-3-1.79q-8.9.45-18.33.63-10 .18-19.46 0a47.41 47.41 0 0 0 8 16.94 48.34 48.34 0 0 0 22 16.23l-.13 10.75a24.72 24.72 0 0 0-12.41 6.57H789.6a35.19 35.19 0 0 0-33.47 24.66 34.77 34.77 0 0 0-1.58 10.39v45.43h73zm-11.59-76.4h-7.72a20.66 20.66 0 0 1 7.76-3.43z"/>
    <path fill="#fff" d="M926.16 468.48V423a35.15 35.15 0 0 0-35-35H798a35.15 35.15 0 0 0-35 35v45.43z"/>
    <circle fill="#3b4256" cx="795.14" cy="436.28" r="9.86"/>
    <path fill="#ceeffb" d="M851.91 468.48l6.33-45.91 7.54-34.57h-39.2l5.68 23.88 6.89 56.6h12.76z"/>
    <path fill="#e0632f" d="M842.76 428.04l-7.35-9.32 5.39-9.33h10.77l5.38 9.33-7.35 9.32h-6.84z"/>
    <path fill="#e68259" d="M842.76 428.04l-4.58 36.03 8 4.41 8.61-3.82-5.19-36.62h-6.84z"/>
    <path fill="#f9f9f9" d="M865.78 388l-18.81 80.48 8.07-.14 29.66-45.58-23.59-10.69 25.77-4.95-21.1-19.12zM826.58 388l18.8 80.48-8.07-.14-29.65-45.58 23.59-10.69-25.77-4.95 21.1-19.12z"/>
    <path fill="#97a4b1" d="M796.52 436.36l-2.75-.13c.66-16.77 15.31-38.26 16.79-40.39 3.48-8.12 12.72-14.69 20.72-14.69h.12l26.62.22c8.91.08 17.93 1.16 23.66 8.47 4.75 6.05 9.35 22.88 9.54 23.59l-2.63.91c0-.17-4.6-16.9-9-22.44-5-6.39-13.35-7.35-21.61-7.41l-26.63-.22h-.11c-7.09 0-15.28 5.82-18.29 13l-.17.3c-.13.29-15.65 22.52-16.26 38.79z"/>
    <path fill="#53667f" d="M889.91 413.92c9.94.75 17.5 10.47 16.84 21.69l-1.31 22.83a3 3 0 0 1-3 3l-7.08-.53.07-1.26 7.08.53a1.77 1.77 0 0 0 1.8-1.75l1.31-22.84c.62-10.52-6.47-19.64-15.77-20.33s-17.41 7.3-18 17.81l-1.31 22.83a1.84 1.84 0 0 0 1.58 2l7 .53-.07 1.26-7-.52a3.08 3.08 0 0 1-2.63-3.37l1.31-22.84c.61-11.26 9.27-19.78 19.18-19.04z"/>
    <path fill="#3b4256" d="M881.21 461.87c-1.14-.08-3.36-1.89-3.29-2.9s2.46-2.46 3.61-2.39 1.87 1.31 1.86 2.79c-.16 1.47-1 2.63-2.18 2.5z"/>
    <circle fill="#97a4b1" cx="794.94" cy="436.28" r="6.57"/>
    <path fill="#3b4256" d="M892.92 462.74c1.15.09 3.56-1.37 3.61-2.39s-2.16-2.8-3.29-2.89-2 1-2.17 2.48.68 2.75 1.85 2.8zM872.26 432.94c.6-10.23 8.47-18 17.55-17.34s16 9.56 15.38 19.79l2 .15c.66-11.49-7.07-21.46-17.27-22.23s-19.06 8-19.72 19.47z"/>
    <path fill="#fff" d="M795.14 436.29l-4.49 5a6.57 6.57 0 0 0 5.74 1.43z"/>
    <path fill="#e6e7e8" d="M795.14 436.29l4.31-4.77a6.56 6.56 0 0 0-5.52-1.73z"/>
    <path fill="#f1f2f2" d="M863.74 397.13l-17.52 12.26-17.51-12.26v-43.64h35.03v43.64z"/>
    <path fill="#f1f2f2" d="M844.55 373.48A47.58 47.58 0 0 1 797.11 326v-41.5c0-26.09 94.89-26.09 94.89 0V326a47.58 47.58 0 0 1-47.45 47.48z"/>
    <path fill="#4d5e75" d="M877.46 252.55c2-2.24 4.9-1.89 7.93-1.86s5.74 2.36 7.08 5.12 1.62 5.92 1.84 9a367 367 0 0 1-.37 56.26l-2.18.8a189.28 189.28 0 0 1-1.65-26.78c.06-6.46.06-13.89-4.84-18.1-3.9-3.35-10.26-3.94-12.49-8.54-1.31-2.63-.72-5.92.8-8.43s-2.52-2.08-.17-3.86z"/>
    <path fill="#2c3241" d="M877.46 252.55c2-2.24 4.9-1.89 7.93-1.86s5.74 2.36 7.08 5.12 1.62 5.92 1.84 9a367 367 0 0 1-.37 56.26l-2.18.8a189.28 189.28 0 0 1-1.65-26.78c.06-6.46.06-13.89-4.84-18.1-3.9-3.35-10.26-3.94-12.49-8.54-1.31-2.63-.72-5.92.8-8.43s-2.52-2.08-.17-3.86z"/>
    <path fill="#626878" d="M893.26 292.1c.73-7.28-3.5-17.63-7.95-22.82-3.54-4.13-4.82-3.4-6.57-8.8a41.57 41.57 0 0 0-3.44-6l-1.91 1.67c-2.35 1.77 1.68 1.31.17 3.86s-2.09 5.78-.8 8.43c2.26 4.6 8.62 5.21 12.49 8.54 4.9 4.21 4.9 11.63 4.84 18.1a189.28 189.28 0 0 0 1.65 26.78l.39-.14a242.14 242.14 0 0 1 1.13-29.62z"/>
    <path fill="#2c3241" d="M835.73 247c-15-1.61-3 7.36-27.06 3.67-3.37-.52-15.77 0-17.21 10-.47 3.29-.25 13.29-.34 16.59-.41 15.18 1.8 26.95 2.79 40.75.25 3.47-.11 4.17 3.21 5.26 0-11.83 1-21 .61-31.66-.14-3.94-.23-8.07 1.55-11.59s5.15-5.86 8.74-7.32 7.46-2.13 11.25-3a101.11 101.11 0 0 0 20.73-7.21 20.86 20.86 0 0 0 6.57-4.34 8.13 8.13 0 0 0 2.27-7.23c-.64-2.53-3.38-4.6-5.92-3.94z"/>
    <path fill="#3b4256" d="M848.83 250.88a5.49 5.49 0 0 0-2-2.93 5.05 5.05 0 0 1 .25.54 8 8 0 0 1-2.27 7.23 21.56 21.56 0 0 1-6.57 4.34 101.11 101.11 0 0 1-20.73 7.23c-3.79.87-7.65 1.53-11.25 3s-7 3.86-8.74 7.32-1.7 7.65-1.56 11.59c.34 8.92.28 22.52.25 33.69a8.67 8.67 0 0 0 .87.36c0-11.83 1-21 .61-31.66-.14-3.94-.23-8.07 1.55-11.59s5.15-5.86 8.74-7.32 7.46-2.13 11.25-3a101.11 101.11 0 0 0 20.77-7.22 20.86 20.86 0 0 0 6.57-4.34 8.1 8.1 0 0 0 2.26-7.24z"/>
    <path fill="#53667f" d="M779.4 240.46s23.52 20.18 63.31-3.2c26.22-15.41 50.45 21.69 28.92 35.59-18.81 12.15-52.8 25.94-92.23-32.39z"/>
    <path fill="#3b4256" opacity=".3" d="M832.53 265.54c2.5-1 5-1.9 7.45-3.06a20.76 20.76 0 0 0 6.57-4.34 8.13 8.13 0 0 0 2.27-7.23c-.64-2.53-3.38-4.6-5.92-3.94l-7.17.07c-13.51-1.45-5.19 5.66-21 4.38a54.23 54.23 0 0 1-18.14 1.58 10.3 10.3 0 0 0-5.14 7.66c-.07.49-.12 1.17-.16 1.93 36.5 36.19 64.41 22.19 80.36 10.23a19.22 19.22 0 0 0 3.65-3.61c-11.82-3.84-28.09-5.09-42.77-3.67z"/>
    <path fill="#3b4256" d="M779.4 240.46s23.52 20.18 63.31-3.2c26.22-15.41 50.45 21.69 28.92 35.59-18.81 12.15-52.8 25.94-92.23-32.39z"/>
    <path fill="#626878" d="M842.76 237.26c-39.42 23.15-62.81 3.64-63.32 3.25.84 1.24 1.66 2.39 2.49 3.56 52.52 41.1 81.05 29.31 97.47 9.37-3.1-13.75-19.4-26.3-36.64-16.18z"/>
    <path fill="#898e9a" d="M877.62 248.31c-5.46-11.43-19.79-19.89-34.87-11-39.41 23.15-62.8 3.64-63.31 3.25.54.8 1.07 1.54 1.61 2.3 52.57 29.53 80.85 23.14 96.57 5.45z"/>
    <path fill="#53667f" d="M843.75 328.77l-15.44 6a12.91 12.91 0 0 0-8.31 12.01v2.63l17-5.41a9.71 9.71 0 0 0 6.78-9.25z"/>
    <path fill="#53667f" d="M843.21 328.77l15.44 6a12.91 12.91 0 0 1 8.27 12.05v2.63L850 344a9.71 9.71 0 0 1-6.78-9.25z"/>
    <path fill="#515775" stroke="#515775" stroke-linecap="round" stroke-miterlimit="10" stroke-width="5" d="M51.03 470.05h1000"/>
</symbol><symbol id="ls-hospital" viewBox="0 0 1109.25 359.85">
    <path fill="#edf6fc" d="M160.24 97.28h-54.55a26.22 26.22 0 0 1-26.22-26.22 26.22 26.22 0 0 1 26.22-26.22h54.56a26.22 26.22 0 0 1 26.22 26.22 26.22 26.22 0 0 1-26.23 26.22zM260.42 71a26.27 26.27 0 0 0 26.27 26.27h127.94A21.71 21.71 0 0 1 436.34 119a21.71 21.71 0 0 1-21.71 21.71h-222a33.41 33.41 0 0 0-33.41 33.41 33.41 33.41 0 0 0 33.41 33.41h106.24A26.47 26.47 0 0 1 325.34 234a26.47 26.47 0 0 1-26.47 26.47h-7.37a45.75 45.75 0 0 0-45.75 45.75A45.75 45.75 0 0 0 291.5 352h559.74a30.19 30.19 0 0 0 30.19-30.19 30.19 30.19 0 0 0-30.19-30.19H835.1a23.13 23.13 0 0 1-23.1-23.18 23.13 23.13 0 0 1 23.13-23.13h126a32.08 32.08 0 0 0 32.08-32.08 32.08 32.08 0 0 0-32.08-32.08h-94.34a28.54 28.54 0 0 1-28.54-28.54 28.54 28.54 0 0 1 28.54-28.54h202.78a39.68 39.68 0 0 0 39.68-39.68 39.68 39.68 0 0 0-39.68-39.68H286.69A26.27 26.27 0 0 0 260.42 71z"/>
    <rect fill="#edf6fc" x="935.85" y="285.32" width="112.71" height="55.21" rx="27.6" ry="27.6"/>
    <path fill="#edf6fc" d="M149.61 325.25H32a32 32 0 0 1-32-32 32 32 0 0 1 32-32h117.61a32 32 0 0 1 32 32 32 32 0 0 1-32 32z"/>
    <path data-name="&#x41A;&#x43E;&#x43D;&#x442;&#x443;&#x440;" fill="none" stroke="#515775" stroke-linecap="round" stroke-miterlimit="10" stroke-width="5" d="M54.58 357.35h1000"/>
    <path fill="#fbd451" d="M526.24 234.53h139.58v113.63H526.24z"/>
    <path fill="#d1d3d4" d="M665.82 240.01l-139.58 3.83v-9.31h139.58v5.48z"/>
    <path fill="#bc9f3d" d="M593.8 234.53h72.02v113.63H593.8z"/>
    <path fill="#485059" d="M518.65 234.53h147.17v5.48H518.65z"/>
    <path fill="#fce38a" d="M665.63 234.53H805.2v113.63H665.63z"/>
    <path fill="#d1d3d4" d="M805.2 243.84l-139.57-4.24v-5.07H805.2v9.31z"/>
    <path fill="#bc9f3d" d="M665.63 234.53h72.81v113.63h-72.81z"/>
    <path fill="#323949" opacity=".8" d="M665.63 234.53h143.95v5.48H665.63z"/>
    <path fill="#fce38a" d="M598 120.91h136.07v227.25H598z"/>
    <path fill="#3b4256" d="M526.24 344.34H805.2v10.54H526.24z"/>
    <path fill="#626878" opacity=".4" d="M734.07 125.41L598 133.9v-15.04h136.07v6.55z"/>
    <path fill="#3b4256" d="M590.84 113.41H740.8v9.58H590.84z"/>
    <path fill="#b4ebf7" d="M608.06 148.39h21.08v31.62h-21.08z"/>
    <path class="hosp-12" d="M605.19 177.61h26.35v4.79h-26.35z"/>
    <path fill="#d2f3fa" d="M608.06 160.66l12.28-12.27h-8.98l-3.3 3.29v8.98zM608.06 167.52l19.14-19.13h-4.49l-14.65 14.64v4.49z"/>
    <path fill="#b4ebf7" d="M639.93 148.39h21.08v31.62h-21.08z"/>
    <path fill="#3b4256" d="M637.05 177.61h26.35v4.79h-26.35z"/>
    <path fill="#d2f3fa" d="M639.93 160.66l12.27-12.27h-8.98l-3.29 3.29v8.98zM639.93 167.52l19.13-19.13h-4.49l-14.64 14.64v4.49z"/>
    <path fill="#b4ebf7" d="M671.79 148.39h21.08v31.62h-21.08z"/>
    <path fill="#3b4256" d="M668.91 177.61h26.35v4.79h-26.35z"/>
    <path fill="#d2f3fa" d="M671.79 160.66l12.28-12.27h-8.99l-3.29 3.29v8.98zM671.79 167.52l19.13-19.13h-4.49l-14.64 14.64v4.49z"/>
    <path fill="#b4ebf7" d="M703.65 148.39h21.08v31.62h-21.08z"/>
    <path fill="#3b4256" d="M700.77 177.61h26.35v4.79h-26.35z"/>
    <path fill="#d2f3fa" d="M703.65 160.66l12.28-12.27h-8.98l-3.3 3.29v8.98zM703.65 167.52l19.13-19.13h-4.49l-14.64 14.64v4.49z"/>
    <path fill="#b4ebf7" d="M608.24 198.98h21.08v31.62h-21.08z"/>
    <path fill="#3b4256" d="M605.36 228.21h26.35V233h-26.35z"/>
    <path fill="#d2f3fa" d="M608.24 211.26l12.28-12.28h-8.99l-3.29 3.3v8.98zM608.24 218.12l19.14-19.14h-4.5l-14.64 14.65v4.49z"/>
    <path fill="#b4ebf7" d="M640.1 198.98h21.08v31.62H640.1z"/>
    <path fill="#3b4256" d="M637.22 228.21h26.35V233h-26.35z"/>
    <path fill="#d2f3fa" d="M640.1 211.26l12.28-12.28h-8.99l-3.29 3.3v8.98zM640.1 218.12l19.14-19.14h-4.49l-14.65 14.65v4.49z"/>
    <path fill="#b4ebf7" d="M671.96 198.98h21.08v31.62h-21.08z"/>
    <path fill="#3b4256" d="M669.09 228.21h26.35V233h-26.35z"/>
    <path fill="#d2f3fa" d="M671.96 211.26l12.28-12.28h-8.98l-3.3 3.3v8.98zM671.96 218.12l19.14-19.14h-4.49l-14.65 14.65v4.49z"/>
    <path fill="#b4ebf7" d="M703.82 198.98h21.08v31.62h-21.08z"/>
    <path fill="#3b4256" d="M700.95 228.21h26.35V233h-26.35z"/>
    <path fill="#d2f3fa" d="M703.82 211.26l12.28-12.28h-8.98l-3.3 3.3v8.98zM703.82 218.12l19.14-19.14h-4.49l-14.65 14.65v4.49z"/>
    <path fill="#b4ebf7" d="M608.41 249.58h21.08v31.62h-21.08z"/>
    <path class="hosp-12" d="M605.54 278.81h26.35v4.79h-26.35z"/>
    <path fill="#d2f3fa" d="M608.41 261.86l12.28-12.28h-8.98l-3.3 3.3v8.98zM608.41 268.72l19.14-19.14h-4.49l-14.65 14.65v4.49z"/>
    <path fill="#b4ebf7" d="M568.67 249.58h21.08v31.62h-21.08z"/>
    <path class="hosp-12" d="M565.8 278.81h26.35v4.79H565.8z"/>
    <path fill="#d2f3fa" d="M568.67 261.86l12.28-12.28h-8.98l-3.3 3.3v8.98zM568.67 268.72l19.14-19.14h-4.49l-14.65 14.65v4.49z"/>
    <path fill="#b4ebf7" d="M536.09 249.58h21.08v31.62h-21.08z"/>
    <path class="hosp-12" d="M533.21 278.81h26.35v4.79h-26.35z"/>
    <path fill="#d2f3fa" d="M536.09 261.86l12.28-12.28h-8.99l-3.29 3.3v8.98zM536.09 268.72l19.14-19.14h-4.5l-14.64 14.65v4.49z"/>
    <path fill="#b4ebf7" d="M568.67 300.18h21.08v31.62h-21.08z"/>
    <path class="hosp-12" d="M565.8 329.41h26.35v4.79H565.8z"/>
    <path fill="#d2f3fa" d="M568.67 312.46l12.28-12.28h-8.98l-3.3 3.3v8.98zM568.67 319.32l19.14-19.14h-4.49l-14.65 14.65v4.49z"/>
    <path fill="#b4ebf7" d="M536.09 300.18h21.08v31.62h-21.08z"/>
    <path class="hosp-12" d="M533.21 329.41h26.35v4.79h-26.35z"/>
    <path fill="#d2f3fa" d="M536.09 312.46l12.28-12.28h-8.99l-3.29 3.3v8.98zM536.09 319.32l19.14-19.14h-4.5l-14.64 14.65v4.49z"/>
    <path fill="#b4ebf7" d="M776.27 249.58h21.08v31.62h-21.08z"/>
    <path class="hosp-12" d="M773.39 278.81h26.35v4.79h-26.35z"/>
    <path fill="#d2f3fa" d="M776.27 261.86l12.28-12.28h-8.98l-3.3 3.3v8.98zM776.27 268.72l19.14-19.14h-4.5l-14.64 14.65v4.49z"/>
    <path fill="#b4ebf7" d="M743.68 249.58h21.08v31.62h-21.08z"/>
    <path class="hosp-12" d="M740.81 278.81h26.35v4.79h-26.35z"/>
    <path fill="#d2f3fa" d="M743.68 261.86l12.28-12.28h-8.98l-3.3 3.3v8.98zM743.68 268.72l19.14-19.14h-4.49l-14.65 14.65v4.49z"/>
    <path fill="#b4ebf7" d="M776.27 300.18h21.08v31.62h-21.08z"/>
    <path class="hosp-12" d="M773.39 329.41h26.35v4.79h-26.35z"/>
    <path fill="#d2f3fa" d="M776.27 312.46l12.28-12.28h-8.98l-3.3 3.3v8.98zM776.27 319.32l19.14-19.14h-4.5l-14.64 14.65v4.49z"/>
    <path fill="#b4ebf7" d="M743.68 300.18h21.08v31.62h-21.08z"/>
    <path class="hosp-12" d="M740.81 329.41h26.35v4.79h-26.35z"/>
    <path fill="#d2f3fa" d="M743.68 312.46l12.28-12.28h-8.98l-3.3 3.3v8.98zM743.68 319.32l19.14-19.14h-4.49l-14.65 14.65v4.49z"/>
    <path fill="#b4ebf7" d="M640.27 249.58h21.08v31.62h-21.08z"/>
    <path class="hosp-12" d="M637.4 278.81h26.35v4.79H637.4z"/>
    <path fill="#d2f3fa" d="M640.27 261.86l12.28-12.28h-8.98l-3.3 3.3v8.98zM640.27 268.72l19.14-19.14h-4.49l-14.65 14.65v4.49z"/>
    <path fill="#b4ebf7" d="M672.13 249.58h21.08v31.62h-21.08z"/>
    <path class="hosp-12" d="M669.26 278.81h26.35v4.79h-26.35z"/>
    <path fill="#d2f3fa" d="M672.13 261.86l12.28-12.28h-8.98l-3.3 3.3v8.98zM672.13 268.72l19.14-19.14h-4.49l-14.65 14.65v4.49z"/>
    <path fill="#b4ebf7" d="M704 249.58h21.08v31.62H704z"/>
    <path fill="#3b4256" d="M701.12 278.81h26.35v4.79h-26.35z"/>
    <path fill="#d2f3fa" d="M704 261.86l12.28-12.28h-8.99l-3.29 3.3v8.98zM704 268.72l19.13-19.14h-4.49L704 264.23v4.49z"/>
    <path fill="#b4ebf7" d="M608.59 300.18h21.08v31.62h-21.08z"/>
    <path class="hosp-12" d="M605.71 329.41h26.35v4.79h-26.35z"/>
    <path fill="#d2f3fa" d="M608.59 312.46l12.27-12.28h-8.98l-3.29 3.3v8.98zM608.59 319.32l19.13-19.14h-4.49l-14.64 14.65v4.49z"/>
    <path fill="#b4ebf7" d="M704.17 300.18h21.08v31.62h-21.08z"/>
    <path fill="#3b4256" d="M701.3 329.41h26.35v4.79H701.3z"/>
    <path fill="#d2f3fa" d="M704.17 312.46l12.28-12.28h-8.98l-3.3 3.3v8.98zM704.17 319.32l19.14-19.14h-4.49l-14.65 14.65v4.49z"/>
    <path fill="#b4ebf7" d="M640.1 292.33h53.12v52.02H640.1z"/>
    <path class="hosp-14" d="M665.45 292.33h2.41v52.02h-2.41z"/>
    <path fill="#d2f3fa" d="M664.96 292.33h1.21v52.02h-1.21z"/>
    <circle class="hosp-12" cx="659.41" cy="319.32" r="1.94"/>
    <circle class="hosp-12" cx="675.98" cy="319.32" r="1.94"/>
    <path fill="#414042" d="M188.33 311.99h228.82v24.95H188.33z"/>
    <path fill="#f1f2f2" d="M194.41 300.51l33.7-5.89 17-25.46a7 7 0 0 1 5.83-3.12H279v78.5h-54.74s-.62-6.33-.62-10.75V331c.58-6-6-11.31-13.23-11.31h-5c-7.11 0-12.94 3.76-13.21 10.81H183V312a11.46 11.46 0 0 1 11.41-11.49z"/>
    <circle fill="#485059" cx="207.78" cy="337.74" r="15.12"/>
    <circle fill="#fff" cx="207.78" cy="337.74" r="9.59"/>
    <circle fill="#3b4256" cx="207.78" cy="337.74" r="8.91"/>
    <circle fill="#fff" cx="207.78" cy="337.74" r="2.86"/>
    <circle fill="#485059" cx="369.77" cy="339.77" r="15.12"/>
    <circle fill="#fff" cx="369.77" cy="339.77" r="9.59"/>
    <circle fill="#3b4256" cx="369.77" cy="339.77" r="8.91"/>
    <circle fill="#fff" cx="369.77" cy="339.77" r="2.86"/>
    <path fill="#97a4b1" d="M181.15 344.55h11v-14h-6.8a10.9 10.9 0 0 0-4.6 1l-.87.41a2.89 2.89 0 0 0-1.67 2.62v7.11a2.89 2.89 0 0 0 2.92 2.86z"/>
    <path fill="#b4ebf7" d="M232.16 294.38h43.74V269l-21.67.22a10 10 0 0 0-8.38 4.52z"/>
    <path fill="#3b4256" d="M278.91 266.05V344.56h-2.14v-78.51h2.14z"/>
    <path fill="#f1f2f2" d="M419.31 238.35v106.2h-33v-6.13c0-7.17-5-16.59-12.27-16.59 0 0-6-.22-7.3-.22-8.44 0-13.43 8.37-13.43 16.81v6.13H279v-106.2z"/>
    <path fill="#e0632f" d="M281.81 300.89h137.51v15.81H281.81zM281.81 292.61h137.51v2.34H281.81zM275.9 316.7h-90.68c0-6.28 4.89-11.43 10.86-11.43l27-4.32h52.82z"/>
    <path class="hosp-12" d="M394.84 244.38h12.27v6.04h-12.27z"/>
    <path fill="#e0632f" d="M395.96 245.1h10.01v4.41h-10.01z"/>
    <path class="hosp-12" d="M380.97 244.38h12.27v6.04h-12.27z"/>
    <path fill="#b4ebf7" d="M382.1 245.1h10.01v4.41H382.1z"/>
    <path fill="#3b4256" d="M309.15 244.28h12.27v6.04h-12.27z"/>
    <path fill="#fde9a1" d="M310.29 245.01h10v4.41h-10z"/>
    <path fill="#3b4256" d="M295.29 244.28h12.27v6.04h-12.27z"/>
    <path fill="#fce38a" d="M296.41 245.01h10.01v4.41h-10.01zM274.51 247.4h4.54v9.25h-4.54z"/>
    <path fill="#e1f7fc" d="M275.9 287.34l-18.21-18.21 13.87-.11 4.34 4.33v13.99zM275.9 294.25l-25.08-25.07 4.39-.03 20.69 20.69v4.41z"/>
    <path fill="#97a4b1" d="M264.9 309.16h7.4v11.15h-7.4z"/>
    <path fill="#fce38a" d="M367.14 315.59h6.28v2.74h-6.28z"/>
    <text fill="#fff" font-family="OpenSans-Bold, Open Sans" font-weight="700" font-size="10" transform="translate(285.75 310.51)">
        &#x441;&#x43A;&#x43E;&#x440;&#x430;&#x44F; &#x43C;&#x435;&#x434;&#x435;&#x446;&#x438;&#x43D;&#x441;&#x43A;&#x430;&#x44F; &#x43F;&#x43E;&#x43C;&#x43E;&#x449;&#x44C;
    </text>
    <path fill="#fde9a1" d="M204.36 315.59h6.28v2.74h-6.28z"/>
    <path fill="#fce38a" d="M181.41 311.95h1.57v8.36h-1.57z"/>
    <path fill="#e0632f" d="M419.31 320.3h1.57v8.36h-1.57z"/>
    <path fill="#97a4b1" d="M311.52 287.33h5.27v5.27h-5.27zM343.79 314.86h5.27v5.27h-5.27z"/>
    <path fill="#485059" d="M391.25 314.86h5.27v5.27h-5.27z"/>
    <path fill="#3b4256" d="M285.11 261.74h36.32V341h-36.32zm35.49.83h-34.67v77.62h34.66zM324.64 312.81h27V341h-27zm26.2.5h-25.38v27.21h25.37z"/>
    <path fill="#414042" d="M387.87 289.68h27.63V341h-27.63zm27 .9h-26.3v49.53h26.3z"/>
    <path fill="#e0632f" d="M347.6 268.26l5.56-9.71 5.51 3.16v-6.36h11.2v6.36l5.51-3.16 5.57 9.71-5.42 3.11 5.42 3.1-5.57 9.72-5.51-3.16v6.35h-11.2v-6.35l-5.51 3.16-5.56-9.72 5.41-3.1-5.41-3.11z"/>
    <path fill="#fff" d="M364.72 281.21l.54.08a1.93 1.93 0 0 1-.53-.11 2.13 2.13 0 0 1-.62-.19 2.86 2.86 0 0 0 .61.22zM365.64 276.53a1.46 1.46 0 0 0-.43-.94 2.82 2.82 0 0 0-.86-.54l-.26-.1v.57h.06a2.41 2.41 0 0 1 .73.4 1 1 0 0 1 .33.64 1.56 1.56 0 0 1 0 .38 1 1 0 0 1-.11.33 1.38 1.38 0 0 1-.54.48l-.48.24-.22.1-.7.28a2.25 2.25 0 0 0-.64.38.94.94 0 0 0-.31.66 1.5 1.5 0 0 0 .12.64.81.81 0 0 0 .45.41l1.22.54v-.13l-1.2-.56a.63.63 0 0 1-.36-.35 1.42 1.42 0 0 1-.08-.57.72.72 0 0 1 .27-.5 1.75 1.75 0 0 1 .49-.27c.25-.1.53-.18.81-.29h.11c.21-.09.42-.17.64-.28a1.7 1.7 0 0 0 .71-.58 1.36 1.36 0 0 0 .18-.46 2 2 0 0 0 .07-.48z"/>
    <path fill="#fff" d="M364.11 270.87l-.33.08a7.08 7.08 0 0 0-.77.23 2.77 2.77 0 0 0-1 .66 1.62 1.62 0 0 0-.35.57 1.72 1.72 0 0 0-.08.32v.27a1.72 1.72 0 0 0 .48 1.14 3.26 3.26 0 0 0 .9.65 9 9 0 0 0 1 .56v-.79a6.84 6.84 0 0 1-.67-.31 2.58 2.58 0 0 1-.71-.54 1.07 1.07 0 0 1-.28-.72 1 1 0 0 1 .29-.71 2 2 0 0 1 .78-.44 4.8 4.8 0 0 1 .51-.15l.49-.11z"/>
    <path fill="#3b4256" d="M363.59 263.77l.48 17.6h.22l.48-17.6h-1.18z"/>
    <circle fill="#3b4256" cx="364.1" cy="262.99" r="1.59"/>
    <path fill="#fff" d="M364.33 266.57l.37.09a7.45 7.45 0 0 1 .87.27 3.07 3.07 0 0 1 1.17.74 1.84 1.84 0 0 1 .4.64 1.9 1.9 0 0 1 .09.36v.33a2 2 0 0 1-.55 1.3 3.66 3.66 0 0 1-1 .74 12.09 12.09 0 0 1-1.11.64v-.89a8.3 8.3 0 0 0 .76-.35 3 3 0 0 0 .81-.62 1.22 1.22 0 0 0 .32-.82 1.1 1.1 0 0 0-.33-.8 2.33 2.33 0 0 0-.88-.5l-.58-.17-.55-.12z"/>
    <ellipse fill="#fff" cx="363.42" cy="266.91" rx="1.13" ry=".71"/>
    <path fill="#c1c8d0" d="M223.97 337.75h55.08v6.81h-55.08z"/>
    <path fill="#e0632f" d="M869.23 168.86l-3.93-21.24a40.42 40.42 0 1 0-15.41 17.7z"/>
    <circle fill="#e68259" cx="828.82" cy="131.2" r="28.93"/>
    <path fill="#fff" d="M847.08 123.41h-10.56v-10.56h-15.57v10.56h-10.56v15.57h10.56v10.57h15.57v-10.57h10.56v-15.57z"/>
    <path fill="#515775" d="M818.71 210l13.69 13.7 2.43 2.37a8.7 8.7 0 0 0 6.54 2.24s39.84-6.44 41.35-8c10.37-10.4 31.17-31.15 41.55-41.54 1.51-1.51 7.62-41 7.62-41a8.86 8.86 0 0 0-2.25-6.57l-2.4-2.4-13.7-13.7a3.87 3.87 0 0 0-5.47 0L892 142.26a3.87 3.87 0 0 0 0 5.47s7.44 4 7.41 7.69c-.11 14.3-26.2 40.32-40.5 40.41-3.63 0-7.64-7.37-7.64-7.37a3.87 3.87 0 0 0-5.47 0l-27.1 16.07a3.86 3.86 0 0 0 0 5.46z"/>
    <path fill="#97a4b1" d="M854.06 192.53a29.92 29.92 0 0 1-2.79-4.07 3.87 3.87 0 0 0-5.47 0l-27.1 16.07a3.86 3.86 0 0 0 0 5.46l2.42 2.42zM913.55 115.16a3.87 3.87 0 0 0-5.47 0L892 142.26a3.87 3.87 0 0 0 0 5.47 29.39 29.39 0 0 1 4.62 3.26l19.86-32.88z"/>
    <path fill="#3b4256" opacity=".2" d="M384.89 339.77a15.22 15.22 0 0 0-.28-2.82h1.58c0 .49.12 1 .12 1.47v6.13h33v-15.9h1.57v-8.36h-1.57v-81.94h-43v110.33a6.15 6.15 0 0 0 1.42 3.91 15.06 15.06 0 0 0 7.16-12.82z"/>
    <rect fill="#515775" x="384.12" y="143.02" width="170.58" height="211.87" rx="6.2" ry="6.2"/>
    <path fill="#fff" d="M401.58 161.49h135.65v174.93H401.58z"/>
    <path fill="#fdeeb9" d="M469.41 127.93a21.29 21.29 0 0 0-21.29 21.29c0 11.76 42.59 11.76 42.59 0a21.29 21.29 0 0 0-21.29-21.29zm0 9.82a3 3 0 1 1 3-3 3 3 0 0 1-3 3z"/>
    <path fill="#fde9a1" d="M490.85 149.22c0-.14-.13-1.34-.14-1.42-.07-.58-.13-1.08-.18-1.47h-42.22c0 .38-.1.87-.15 1.45-.09.92-.14 1.38-.14 1.44.08 2.3 42.78 2.29 42.83 0z"/>
    <path fill="#fce38a" d="M442.06 148.25h54.69a15 15 0 0 1 15 15v15.63H427v-15.61a15 15 0 0 1 15-15z"/>
    <path fill="#bdaa68" d="M427.05 169.69h84.72v9.21h-84.72z"/>
    <path fill="#fde9a1" d="M508 158.12a22.31 22.31 0 0 0-4.29-4.6h-68.56a22.36 22.36 0 0 0-4.29 4.6z"/>
    <path fill="#e0632f" d="M414.89 193.71h37.66v37.66h-37.66z"/>
    <path fill="#e6e7e8" d="M459.29 193.71h64.91v7.03h-64.91zM459.29 209.02h64.91v7.02h-64.91zM459.29 224.34h64.91v7.03h-64.91z"/>
    <circle fill="#3b4256" cx="498.75" cy="305.35" r="14"/>
    <path fill="#e6e7e8" d="M414.89 239.65H524.2v7.02H414.89zM414.89 254.97H524.2v7.02H414.89zM414.89 270.28H524.2v7.03H414.89zM414.89 285.6H524.2v7.02H414.89zM414.89 300.91H524.2v7.02H414.89zM414.89 316.23H524.2v7.02H414.89z"/>
    <text fill="#e0632f" font-family="OpenSans-Bold, Open Sans" font-weight="700" font-size="40" transform="translate(514.43 113.41)">
        &#x41A;&#x41B;&#x418;&#x41D;&#x418;&#x41A;&#x410;
    </text>
    <path fill="#3b4256" opacity=".2" d="M805.16 289.31v61.45h-8.66v-10.88h-55.22v15h-16.61V226.13h9.39v8.4h7.22v60.76h55.22v-6zM754 271.43a10.49 10.49 0 0 0-8.1 4l-.18.23a11.1 11.1 0 0 0-1.1 1.71c-.08.15-.17.3-.24.46a11.21 11.21 0 0 0-.64 1.78c-.06.2-.13.38-.17.58a11.54 11.54 0 0 0-.29 2.48A11 11 0 0 0 754 293.82h32.3a10.2 10.2 0 0 0 1.94-.21l.58-.14a9.7 9.7 0 0 0 1.28-.42c.2-.08.39-.15.59-.25a10.62 10.62 0 0 0 1.31-.74c.11-.07.23-.13.34-.21a10.93 10.93 0 0 0 1.35-1.16c.18-.18.35-.38.52-.58a10.56 10.56 0 0 0 .68-.86c.17-.23.33-.46.48-.71s.36-.66.53-1a11.43 11.43 0 0 0 1.14-4.91 11 11 0 0 0-10.72-11.2z"/>
    <path fill="#fff" d="M743.08 288.38h192.11v42.72H743.08z"/>
    <path fill="#e6e7e8" d="M743.08 309.74h192.11v21.36H743.08z"/>
    <path fill="#515775" d="M735.52 222.1h13.62v132.78h-13.62z"/>
    <path fill="#97a4b1" d="M730.9 222.1h7.54v132.78h-7.54z"/>
    <path fill="#515775" d="M924.63 275.24h11.67v79.64h-11.67z"/>
    <path fill="#97a4b1" d="M935.45 275.24h5.32v79.64h-5.32z"/>
    <path fill="#55c9af" d="M804.39 282.65h115.57v58.88H804.39z"/>
    <rect fill="#e0632f" x="804.39" y="320.42" width="115.57" height="6" rx="2" ry="2"/>
    <path fill="#fff" d="M794.21 287h-32.33a10.76 10.76 0 0 1-10.73-10.73 10.76 10.76 0 0 1 10.73-10.73h32.33a10.76 10.76 0 0 1 10.73 10.73A10.76 10.76 0 0 1 794.21 287z"/>
    <path fill="#55c9af" d="M230.33 111.9V180h8.75v33.34a1.27 1.27 0 0 0 2.25.82L269.94 180h85.66v-68.1z"/>
    <path fill="#fff" d="M311.58 137.22h-9.57v-9.58h-14.13v9.58h-9.58v14.13h9.58v9.58h14.13v-9.58h9.57v-14.13z"/>
    <g opacity=".2" fill="#3b4256">
        <path d="M526.11 354.8a4.21 4.21 0 0 0 4.18-3.73l16.23-141.29a2.66 2.66 0 0 0 0-.36 4 4 0 0 0-4.14-4.34H540v-43a7.24 7.24 0 0 0-7.23-7.25H517a26.87 26.87 0 0 0-.47-11.7c-.75-2.73-1.66-6.09-4.25-6.92a5.82 5.82 0 0 0-4.34.75 9.3 9.3 0 0 0-4.44 6c-2.89 3.47-4.55 4.11-5.55 3.76-1.61-.57-1.87-3.84-2.42-3.74s-.41 2.73-.41 3a13.84 13.84 0 0 0 .39 3 12.14 12.14 0 0 0 4.42 6.56v91a47.76 47.76 0 0 0-38.67 46.69v61.57zM629.65 358.8a4.21 4.21 0 0 1-4.18-3.73l-16.23-141.29a2.66 2.66 0 0 1 0-.36 4 4 0 0 1 4.14-4.34h2.36v-43a7.24 7.24 0 0 1 7.23-7.25h15.77l.29-45.46h17l-.23 22.34v1.47a2.08 2.08 0 0 1 0 .21v3.06a12 12 0 0 1 0 19.2v91a47.76 47.76 0 0 1 38.67 46.69v61.46z"/>
    </g>
    <rect fill="#fbd451" x="507.93" y="98" width="140.87" height="239.47" rx="35.9" ry="35.9"/>
    <circle fill="#e6e7e8" cx="515.17" cy="145.91" r="12.05"/>
    <circle fill="#e6e7e8" cx="642.89" cy="148.76" r="12.05"/>
    <path fill="#55c9af" d="M691.23 354.76V293a47.81 47.81 0 0 0-47.68-47.66H516.92A47.81 47.81 0 0 0 469.25 293v61.8z"/>
    <path fill="#f1f2f2" d="M603.26 253.38l-25.28 55-22.37-55v-47.95h47.65v47.95z"/>
    <path fill="#f1f2f2" d="M578.36 229.87a64.71 64.71 0 0 1-64.53-64.53v-56.46a64.71 64.71 0 0 1 64.53-64.53 64.71 64.71 0 0 1 64.53 64.53v56.47a64.71 64.71 0 0 1-64.53 64.52z"/>
    <path fill="#e5a638" opacity=".3" d="M623.57 135.66c-32.73-5-62.79-41.73-62.79-41.73s-22.86 36.23-42.66 44.81c0 0-8.79 6.58-10.18-7.1v-33a57.06 57.06 0 0 1 56.9-56.9H592a57.06 57.06 0 0 1 56.91 56.9v43.23c0 4.21-5.1 8.49-8.06 5.49z"/>
    <path fill="#fbd451" d="M623.57 129.8c-32.73-5-62.79-41.73-62.79-41.73s-22.86 42.1-42.66 50.68c0 0-8.79 8-10.18-5.64V92.78a57.06 57.06 0 0 1 56.91-56.91H592a57.06 57.06 0 0 1 56.83 56.91v51.29a4.69 4.69 0 0 1-8.06 3.29z"/>
    <path fill="#fcdd74" d="M592 35.87h-11.78a57.08 57.08 0 0 1 56.91 56.91v50.74l3.67 3.76a4.69 4.69 0 0 0 8.06-3.29V92.78A57.06 57.06 0 0 0 592 35.87z"/>
    <path fill="#fbbb3c" d="M646.15 146.56l-18.74-19.15c-35.72-5.44-68.57-45.53-68.57-45.53s-25 45.94-46.56 55.3a12.86 12.86 0 0 1-2.8 1.84c3 4.88 8.56-.21 8.56-.21 19.81-8.58 42.66-50.68 42.66-50.68s30.06 36.75 62.79 41.73l17.22 17.48a4.66 4.66 0 0 0 6.59 0 5.06 5.06 0 0 1-1.15-.78z"/>
    <path fill="#55c9af" d="M627.91 71.51h-97.76l-22.22-49.89c22.46-28.83 112.75-28.83 142.33 0z"/>
    <path fill="#77d4bf" d="M579.09 71.51h48.76l22.41-49.89C635.92 7.65 607.32.5 579.09.08z"/>
    <path fill="#fff" d="M600.64 30.89a21.65 21.65 0 0 1-26 26 21.42 21.42 0 0 1-16.12-16.12 21.65 21.65 0 0 1 26-26 21.42 21.42 0 0 1 16.12 16.12z"/>
    <path fill="#515775" d="M591.13 30.92h-6.65v-6.65h-9.81v6.65h-6.64v9.81h6.64v6.66h9.81v-6.66h6.65v-9.81z"/>
</symbol><symbol id="ls-service" viewBox="0 0 1058.5 335.49">
    <rect fill="#edf6fc" x="823.84" y="15" width="148.63" height="49" rx="24.5" ry="24.5"/>
    <path fill="#edf6fc" d="M1018 277.58H896.8a20.39 20.39 0 0 1-20.23-19.82c-.33-11.29 8.1-20.72 18.82-21.07h67.42a25.59 25.59 0 0 0 25.29-24.07c.9-14.21-9.32-26.5-22.82-27.44q-.81-.06-1.62-.06H743.45A16.59 16.59 0 0 1 727 169c-.27-9.16 6.57-16.82 15.28-17.1h191a20.31 20.31 0 0 0 20.11-19.7c.33-11.22-8-20.59-18.7-20.94H683.05c-12.4 0-22.45-10.58-22.45-23.63 0-13.05 10.05-23.63 22.45-23.63h71.44c13.12 0 23.75-11.19 23.75-25s-10.63-25-23.75-25H90.64C75 14 62.29 27.36 62.29 43.84s12.69 29.84 28.35 29.84H204c9.86 0 17.85 8.41 17.85 18.79v.38c-.2 10.23-8.13 18.41-17.85 18.41h-53.6a28 28 0 0 0-27.61 27.6c-.28 15.53 11.46 28.36 26.22 28.65h63a16.88 16.88 0 0 1 16.72 16.38c.27 9.33-6.69 17.12-15.55 17.41H23.83C10.67 201.32 0 212.55 0 226.4c0 13.85 10.67 25.08 23.83 25.08h241.22a19.81 19.81 0 0 1 19.62 19.24c.29 10.95-7.9 20.07-18.3 20.38H100.51c-10.66 0-19.3 9.1-19.3 20.32v2.73c0 11.22 8.64 20.32 19.3 20.32H1018c14.92 0 27-12.74 27-28.44 0-15.7-12.11-28.45-27-28.45z"/>
    <path fill="#f1f2f2" d="M640.45 313.82H447.99l24.7-71.76h143.92l23.84 71.76z"/>
    <path fill="#bcbec0" opacity=".3" d="M451.42 304.36l175.8-29.23-9.71-29.13H470.94z"/>
    <path fill="#515775" d="M746.27 7.07A7.07 7.07 0 0 0 739.2 0H349.84a7.07 7.07 0 0 0-7.07 7.07v225.37a7.07 7.07 0 0 0 7.06 7.08H739.2a7.07 7.07 0 0 0 7.07-7.07z"/>
    <path fill="#f1f2f2" d="M746.27 226.85v29.39a18.87 18.87 0 0 1-18.87 18.87H361.63a18.87 18.87 0 0 1-18.87-18.87v-29.39z"/>
    <path fill="#b4ebf7" d="M359.31 16.27h370.42v194.48H359.31z"/>
    <path fill="#e2e2e2" d="M439.39 313.8h208.52v16.1H439.39z"/>
    <path fill="#3d4158" d="M878 320.86h-68.45l13.56-52.95h45.11l9.78 52.95zM850.55 235.87h66.9v11.05h-66.9z"/>
    <path fill="#53667f" d="M925.57 261.5h-79.5a89.5 89.5 0 0 1-89.4-89.4 88.46 88.46 0 0 1 18.1-53.78L790.14 130a69.32 69.32 0 0 0-14.19 42.15 70.21 70.21 0 0 0 70.13 70.13h79.5z"/>
    <path fill="#3b4256" opacity=".2" d="M765.06 134.47a29.31 29.31 0 0 0 15.84 11.87 70.13 70.13 0 0 1 9.22-16.34l-15.37-11.63a89.91 89.91 0 0 0-9.69 16.1z"/>
    <path fill="#d1d3d4" d="M847.615 142.608l4.599-17.164 43.708 11.712-4.6 17.164z"/>
    <path fill="#d1d3d4" d="M840.065 137.565l17.164-4.6 11.712 43.709-17.165 4.599z"/>
    <path fill="#3b4256" opacity=".2" d="M849.91 134l-1.15 4.3-.82 3.03 1.84 1.84 34.34 9.2-25.13-25.13-5.21-1.4-2.3 2.31-1.57 5.85z"/>
    <path fill="#d1d3d4" d="M844.026 141.051L856.6 128.48l31.996 31.996-12.572 12.573z"/>
    <path fill="#3d4158" d="M748.33 49.164l16.373-16.367 24.92 24.93-16.372 16.367z"/>
    <path fill="#53667f" d="M883.92 133.15l-36.54 36.54a2.58 2.58 0 0 1-3.64 0l-93.1-93.1a2.57 2.57 0 0 1 0-3.63l36.55-36.56a2.57 2.57 0 0 1 3.63 0l93.1 93.1a2.58 2.58 0 0 1 0 3.65zM768.64 32.63l-20.46 20.46a5.54 5.54 0 0 1-7.81 0 5.54 5.54 0 0 1 0-7.81l20.46-20.43a5.54 5.54 0 0 1 7.81 0 5.54 5.54 0 0 1 0 7.78z"/>
    <circle fill="#e0632f" cx="789.62" cy="118.45" r="24.45"/>
    <circle fill="#f1f2f2" cx="789.62" cy="118.45" r="11.65"/>
    <circle fill="#e0632f" cx="845.36" cy="271.37" r="24.45"/>
    <circle fill="#f1f2f2" cx="845.36" cy="271.37" r="11.65"/>
    <path fill="#53667f" d="M827.5 223.69s5.92 13.16 13.16 13.16h86.69a13.19 13.19 0 0 0 13.16-13.15h-113zM738.75 311.82h201.87v18.08H738.75z"/>
    <path fill="#e0632f" d="M586.34 99.69a40.65 40.65 0 0 0-69.71-28.45 40.65 40.65 0 0 0-58.33 56.61l58.16 57.86 59.63-59.11c.65-.75 2.33-2.89 2.33-2.89a40.45 40.45 0 0 0 7.92-24.02z"/>
    <path fill="#3b4256" opacity=".2" d="M549.69 71.12a27.31 27.31 0 0 0-26.77 21.94h-8.2a29.4 29.4 0 0 0-29.36 29.36v32.39l9.26 9.21v-41.6a20.12 20.12 0 0 1 20.1-20.1h8a27.29 27.29 0 1 0 27-31.19z"/>
    <path fill="#515775" d="M492.78 210.75h-9.26v-90.46a29.27 29.27 0 0 1 29.36-29.09h14.32v9.18h-14.32a20 20 0 0 0-20.1 19.92z"/>
    <path fill="#e6e7e8" d="M575.14 96.56a27.3 27.3 0 1 1-27.31-27.29 27.3 27.3 0 0 1 27.31 27.29z"/>
    <path fill="#97a4b1" d="M560.41 96.56A12.58 12.58 0 1 1 547.82 84a12.58 12.58 0 0 1 12.59 12.56z"/>
    <path fill="#fff" d="M543.26 108.29L547.61 97l-12.24 1.32a12.58 12.58 0 0 0 7.88 9.95z"/>
    <path fill="#f1f2f2" d="M547.61 97l12.74-1.68a12.59 12.59 0 0 0-7.73-10.42z"/>
    <path fill="#fff" d="M545.17 30.19a2.95 2.95 0 1 1 5.89-.09l.3 19.47a2.95 2.95 0 1 1-5.89.09zM559.82 54.33a3 3 0 0 1-2.07-3.66l1.44-5.35a2.95 2.95 0 1 1 5.69 1.53l-1.44 5.35a3 3 0 0 1-3.62 2.13zM570.29 58.88a3 3 0 0 1-1.22-4l10.27-19.71a2.95 2.95 0 1 1 5.22 2.72l-10.27 19.69a3 3 0 0 1-4 1.3zM579.28 66.06a3 3 0 0 1 0-4.2l3.92-3.92a2.95 2.95 0 1 1 4.16 4.16l-3.88 3.9a3 3 0 0 1-4.2.06zM586.09 75.32a3 3 0 0 1 1.16-4l18.93-10.73a2.95 2.95 0 1 1 2.91 5.12L590.15 76.4a3 3 0 0 1-4.06-1.08zM590.28 86a3 3 0 0 1 2.13-3.62l5.35-1.38a2.95 2.95 0 1 1 1.53 5.69l-5.35 1.43a3 3 0 0 1-3.66-2.12zM591.57 97.38a3 3 0 0 1 3-2.95h19.86a2.95 2.95 0 1 1 0 5.89h-19.86a3 3 0 0 1-3-2.94zM592 112.35a2.95 2.95 0 1 1 1.52-5.69l5.35 1.43a2.95 2.95 0 1 1-1.52 5.69zM586.33 123.33a2.95 2.95 0 1 1 3.07-5l23 14a2.95 2.95 0 1 1-3.07 5zM578.16 132.36a2.95 2.95 0 1 1 4.16-4.17l3.92 3.91a2.95 2.95 0 1 1-4.16 4.17zM508.9 61a2.95 2.95 0 1 1 4.15-4.18l3.95 3.9a2.95 2.95 0 1 1-4.15 4.18zM511.81 37.93A2.95 2.95 0 1 1 517 35.1l10.42 19a2.95 2.95 0 1 1-5.16 2.83zM531.84 46.46a2.95 2.95 0 1 1 5.68-1.54l1.48 5.35a2.95 2.95 0 1 1-5.68 1.54zM247.02 123.35l-32.77 31.83V329.9h155.21V123.35H247.02z"/>
    <path fill="#e0632f" d="M247.02 123.35l-32.77 31.83h32.77v-31.83z"/>
    <path fill="#e6e7e8" d="M243.64 174.43h101.54v7.52H243.64zM243.64 198.21h101.54v7.51H243.64zM243.64 221.98h101.54v7.52H243.64zM243.64 245.75h101.54v7.51H243.64zM243.64 269.52h101.54v7.52H243.64zM243.64 293.29h101.54v7.52H243.64z"/>
    <path fill="#3b4256" opacity=".2" d="M849.07 322.87V245.8a7.46 7.46 0 0 0-.86-3.44H847a69.71 69.71 0 0 1-22.36-3.72h-37.4A89.27 89.27 0 0 0 825.32 259a24.31 24.31 0 0 0-3.49 12.53 24.74 24.74 0 0 0 .33 3.83l-2.3 9-7.07 27.63h-73.12V330h102.7a6.94 6.94 0 0 0 6.7-7.13zM640.08 313.84l-12.86-38.71H727a18.87 18.87 0 0 0 18.87-18.87v-11.95h-7V141.76l7-7v-7.31L734 139.29H628L614.72 126l-3.66 3.66L624.34 143v180.23a6.71 6.71 0 0 0 6.71 6.71h16.51v-16.1z"/>
    <path fill="#55c9af" d="M632.55 139.27h114.54v183.19H632.55z"/>
    <rect fill="#e5e5e5" x="632.55" y="244.28" width="209.71" height="85.62" rx="6.71" ry="6.71"/>
    <path fill="#515775" d="M732.39 168.41h-85.14l-14.7-22.59v-6.56h114.54v6.56l-14.7 22.59z"/>
    <path fill="#e0632f" d="M655.38 191.98h38.54v52.3h-38.54z"/>
    <path fill="#f1f2f2" d="M704.36 198.89h5.34v45.39h-5.34zM714.45 198.89h5.34v45.39h-5.34z"/>
    <path fill="#515775" d="M619.264 129.623l3.656-3.656 14.651 14.651-3.655 3.656zM740.84 140.597l14.656-14.647 3.655 3.658-14.656 14.646z"/>
    <circle fill="#fff" cx="660.44" cy="271.16" r="13.13"/>
    <path fill="#d1d3d4" d="M658 284a13 13 0 0 0 2.45.25 13.17 13.17 0 0 0 2.42-.25v-25.72a13.26 13.26 0 0 0-2.42-.25 13 13 0 0 0-2.45.25z"/>
    <path fill="#f1f2f2" d="M658 284a13.42 13.42 0 0 0 2.43.25V258a13 13 0 0 0-2.43.25z"/>
    <circle fill="#fff" cx="699.24" cy="271.14" r="13.13" transform="rotate(-36.93 699.238 271.15)"/>
    <path fill="#d1d3d4" d="M687.47 276.94a12.88 12.88 0 0 0 1.28 2.11 13.18 13.18 0 0 0 1.65 1.8l20.6-15.5a13.07 13.07 0 0 0-1.26-2.08 13.35 13.35 0 0 0-1.67-1.81z"/>
    <path fill="#f1f2f2" d="M687.47 276.94a13.23 13.23 0 0 0 1.27 2.09l21-15.77a13.28 13.28 0 0 0-1.66-1.8z"/>
    <circle fill="#fff" cx="738.05" cy="271.19" r="13.13" transform="rotate(-52.05 738.056 271.196)"/>
    <path fill="#d1d3d4" d="M746.69 281a12.89 12.89 0 0 0 1.7-1.78 13.14 13.14 0 0 0 1.3-2l-20.32-15.85a13 13 0 0 0-1.68 1.76 12.84 12.84 0 0 0-1.31 2.09z"/>
    <path fill="#f1f2f2" d="M746.69 281a13 13 0 0 0 1.69-1.77l-20.7-16.14a13 13 0 0 0-1.3 2.07z"/>
    <circle fill="#fff" cx="776.85" cy="271.11" r="13.13" transform="rotate(-13.48 776.86 271.128)"/>
    <path fill="#d1d3d4" d="M763.75 271.77a12.26 12.26 0 0 0 1.13 4.74l25.06-6a12.18 12.18 0 0 0-1.14-4.74z"/>
    <path fill="#f1f2f2" d="M763.75 271.77a13.47 13.47 0 0 0 .33 2.43l25.53-6.12a12.77 12.77 0 0 0-.8-2.31z"/>
    <circle fill="#fff" cx="815.65" cy="271.18" r="13.13" transform="rotate(-35.35 815.654 271.185)"/>
    <path fill="#d1d3d4" d="M821.1 283.08a12.33 12.33 0 0 0 4-2.82l-14.91-21a13.22 13.22 0 0 0-2.11 1.2 13 13 0 0 0-1.86 1.62z"/>
    <path fill="#f1f2f2" d="M821.1 283.08a13.52 13.52 0 0 0 2.13-1.21L808 260.46a13.27 13.27 0 0 0-1.84 1.61z"/>
    <circle fill="#fff" cx="660.91" cy="303.65" r="13.15" transform="rotate(-75.55 660.877 303.65)"/>
    <path fill="#d1d3d4" d="M672 310.77a8.5 8.5 0 0 0 .67-1.07 10.62 10.62 0 0 0 .8-2.07c.1-.34.24-.82.36-1.39l-25.41-6.65a11.72 11.72 0 0 0-.48 1.9 12.43 12.43 0 0 0-.15 1.61v1.33z"/>
    <path fill="#f1f2f2" d="M672 310.77a8.41 8.41 0 0 0 1.21-2.29l-25.32-6.56c0 .36-.07.75-.08 1.15s0 .94 0 1.36z"/>
    <circle fill="#fff" cx="699.24" cy="305.22" r="13.13" transform="rotate(-64.03 699.233 305.218)"/>
    <path fill="#d1d3d4" d="M688.72 297.37a12.71 12.71 0 0 0-1.3 2.1 13.17 13.17 0 0 0-.84 2.28L709.74 313a13.08 13.08 0 0 0 1.26-2 13.22 13.22 0 0 0 .85-2.31z"/>
    <path fill="#f1f2f2" d="M688.72 297.37a12.83 12.83 0 0 0-1.29 2.08L711 311a13.11 13.11 0 0 0 .85-2.3z"/>
    <circle fill="#fff" cx="738.03" cy="305.18" r="13.13" transform="rotate(-46.97 738.034 305.177)"/>
    <path fill="#d1d3d4" d="M745.77 315.8a13.43 13.43 0 0 0 1.86-1.62 13.24 13.24 0 0 0 1.47-1.94l-18.84-17.58a13.3 13.3 0 0 0-1.83 1.6 12.82 12.82 0 0 0-1.49 2z"/>
    <path fill="#f1f2f2" d="M745.77 315.8a13.07 13.07 0 0 0 1.84-1.61l-19.19-17.92a13.22 13.22 0 0 0-1.48 2z"/>
    <circle fill="#fff" cx="776.83" cy="305.22" r="13.13"/>
    <path fill="#d1d3d4" d="M774.37 318.1a12.3 12.3 0 0 0 4.87 0v-25.77a12.22 12.22 0 0 0-4.87 0z"/>
    <path fill="#f1f2f2" d="M774.37 318.1a13.19 13.19 0 0 0 2.44.25v-26.26a13.19 13.19 0 0 0-2.44.25z"/>
    <circle fill="#fff" cx="815.63" cy="305.21" r="13.13" transform="rotate(-37.08 815.624 305.216)"/>
    <path fill="#d1d3d4" d="M803.88 311a12.94 12.94 0 0 0 1.28 2.11 13.3 13.3 0 0 0 1.65 1.78l20.55-15.54a13.23 13.23 0 0 0-1.26-2.08 13 13 0 0 0-1.68-1.81z"/>
    <path fill="#f1f2f2" d="M803.88 311a13 13 0 0 0 1.27 2.09l20.94-15.83a13 13 0 0 0-1.67-1.8z"/>
    <path data-name="&#x41A;&#x43E;&#x43D;&#x442;&#x443;&#x440;" fill="#515775" stroke="#515775" stroke-linecap="round" stroke-miterlimit="10" stroke-width="7" d="M55 331.99h1000"/>
    <g opacity=".2" fill="#3b4256">
        <path d="M401.19 148.62a11.74 11.74 0 0 0-11.74 11.74V291a11.75 11.75 0 0 0 8.14 11.18c1 6 2 12.07 2.56 18.18.47 4.54 2.57 8.3 5.27 8.3h.19v-180z"/>
        <path d="M410 148.62a11.74 11.74 0 0 1 11.74 11.74V291a11.75 11.75 0 0 1-8.14 11.18c-.78 7.92-1.78 14-2.56 18.18-.6 3.19-1.52 7.62-4.1 8.28a2.93 2.93 0 0 1-1.36 0v-180z"/>
    </g>
    <path fill="#fff" d="M412.64 148.61h-8.45a11.74 11.74 0 0 0-11.74 11.74V291a11.75 11.75 0 0 0 8.14 11.18c1 6 2 12.07 2.56 18.18.47 4.54 2.57 8.3 5.27 8.3s4.8-3.75 5.27-8.3c.54-6.11 1.58-12.14 2.56-18.18a11.75 11.75 0 0 0 8.13-11.18V160.35a11.74 11.74 0 0 0-11.74-11.74z"/>
    <path fill="#e6e7e8" d="M409.72 323.21c0 1.15-.59 2.09-1.3 2.08-.72 0-1.3-.94-1.3-2.09V166.58c0-1.15.58-2.09 1.3-2.09.72 0 1.3.93 1.3 2.09z"/>
    <path fill="#e0632f" d="M409.72 324.31a1.17 1.17 0 0 1-1.3 1 1.17 1.17 0 0 1-1.3-1v-73.9a1.18 1.18 0 0 1 1.3-1 1.18 1.18 0 0 1 1.3 1z"/>
    <path fill="#515775" d="M411.86 166.5h6.57v1.03h-6.57zM411.86 173.35h4.08v1.04h-4.08zM411.86 180.2h4.09v1.04h-4.09zM411.86 188.09h6.57l.01-1.04h-6.58v1.04zM411.86 193.91h4.08v1.03h-4.08zM411.86 201.8h4.08v-1.03l-4.08-.01v1.04zM411.86 208.65h6.57v-1.03h-6.57v1.03zM411.86 214.47h4.08v1.03h-4.08zM411.86 221.32h4.08v1.04h-4.08zM411.86 229.21h6.57v-1.04h-6.57v1.04zM411.86 236.07h4.08v-1.04h-4.08v1.04zM411.86 241.88h4.08v1.03h-4.08zM411.86 249.77h6.58l-.01-1.03h-6.57v1.03zM411.86 255.59h4.08v1.03h-4.08zM411.86 262.44h4.08v1.03h-4.08zM411.86 269.29h6.57v1.04h-6.57zM411.86 276.15h4.08v1.04h-4.08zM411.86 283h4.08v1.04h-4.08zM411.86 289.85h6.57v1.04h-6.57zM397.86 166.5h6.57v1.03h-6.57zM400.35 173.35h4.08v1.04h-4.08zM400.35 180.2h4.09v1.04h-4.09zM404.43 188.09h-6.57v-1.04h6.57v1.04zM400.35 193.91h4.08v1.03h-4.08zM404.44 201.8h-4.09v-1.03l4.08-.01.01 1.04zM404.43 208.65h-6.57v-1.03h6.58l-.01 1.03zM400.35 214.47h4.08v1.03h-4.08zM400.35 221.32h4.08v1.04h-4.08zM404.43 229.21h-6.57v-1.04h6.57v1.04zM404.43 236.07h-4.08v-1.04h4.08v1.04zM400.35 241.88h4.08v1.03h-4.08zM404.43 249.77h-6.57v-1.03h6.57v1.03zM400.35 255.59h4.08v1.03h-4.08zM400.35 262.44h4.08v1.03h-4.08zM397.86 269.29h6.57v1.04h-6.57zM400.35 276.15h4.08v1.04h-4.08zM400.35 283h4.08v1.04h-4.08zM397.86 289.85h6.57v1.04h-6.57zM136.15 317.01v6.75h-14.19v-6.75z"/>
    <path fill="#3d4158" d="M150.26 308.94h19.55v6.12h-19.55z"/>
    <path fill="#e6e7e8" d="M296.99 313.63v13.51H131.93v-13.51z"/>
    <path fill="#fff" d="M297 313.63v5.63H131.94v-5.63z"/>
    <path fill="#515775" d="M297 313.63l18.34 6.76-18.34 6.75v-13.51z"/>
    <path fill="#3d4158" d="M180.56 312v16.94h-37.07V312z"/>
    <path fill="#515775" d="M180.56 311.99v7.26h-37.07v-7.26zM140 304.88h70.71v4.05H140z"/>
</symbol><symbol id="r-fb" viewBox="0 0 60 60">
    <path fill="#3b5998" d="M0 30a30 30 0 1 1 30 30A30 30 0 0 1 0 30z"/>
    <path fill="#fff" d="M33.13 47.64V31.32h4.51l.6-5.62h-5.1v-2.82c0-1.47.14-2.25 2.25-2.25h2.81V15h-4.51c-5.41 0-7.32 2.73-7.32 7.32v3.38H23v5.62h3.37v16.32z"/>
</symbol><symbol id="r-fb_h" viewBox="0 0 60 60">
    <g stroke-miterlimit="10" stroke-width="2" fill="none" stroke="#3b5998">
        <path d="M1 30a29 29 0 1 1 29 29A29 29 0 0 1 1 30z"/>
        <path d="M33 47.05V31.27h4.36l.64-5.43h-5v-2.72c0-1.42.13-2.18 2.17-2.18h2.72V15.5h-4.32c-5.23 0-7.07 2.64-7.07 7.07v3.26h-3.27v5.44h3.26v15.78z"/>
    </g>
</symbol><symbol id="r-ok" viewBox="0 0 60 60">
    <path fill="#f68634" d="M0 30a30 30 0 1 1 30 30A30 30 0 0 1 0 30z"/>
    <g fill="#fff">
        <path d="M30 30.48a7.89 7.89 0 0 0 8-7.74 8 8 0 0 0-16 0 7.89 7.89 0 0 0 8 7.74zm0-10.94a3.21 3.21 0 1 1-3.32 3.2 3.27 3.27 0 0 1 3.32-3.2zM33.24 36.8a15.33 15.33 0 0 0 4.66-1.86 2.22 2.22 0 0 0 .74-3.13 2.4 2.4 0 0 0-3.24-.71 10.49 10.49 0 0 1-10.8 0 2.4 2.4 0 0 0-3.24.71 2.22 2.22 0 0 0 .74 3.13 15.35 15.35 0 0 0 4.66 1.86l-4.48 4.33a2.21 2.21 0 0 0 0 3.21 2.41 2.41 0 0 0 3.32 0l4.4-4.26 4.41 4.25a2.41 2.41 0 0 0 3.32 0 2.21 2.21 0 0 0 0-3.21z"/>
    </g>
</symbol><symbol id="r-ok_h" viewBox="0 0 60 60">
    <g fill="none" stroke="#f68634" stroke-miterlimit="10" stroke-width="2">
        <path d="M1 30a29 29 0 1 1 29 29A29 29 0 0 1 1 30z"/>
        <path d="M30 30.48a7.89 7.89 0 0 0 8-7.74 8 8 0 0 0-16 0 7.89 7.89 0 0 0 8 7.74zm0-10.94a3.21 3.21 0 1 1-3.32 3.2 3.27 3.27 0 0 1 3.32-3.2zM33.24 36.8a15.33 15.33 0 0 0 4.66-1.86 2.22 2.22 0 0 0 .74-3.13 2.4 2.4 0 0 0-3.24-.71 10.49 10.49 0 0 1-10.8 0 2.4 2.4 0 0 0-3.24.71 2.22 2.22 0 0 0 .74 3.13 15.35 15.35 0 0 0 4.66 1.86l-4.48 4.33a2.21 2.21 0 0 0 0 3.21 2.41 2.41 0 0 0 3.32 0l4.4-4.26 4.41 4.25a2.41 2.41 0 0 0 3.32 0 2.21 2.21 0 0 0 0-3.21z"/>
    </g>
</symbol><symbol id="r-tw" viewBox="0 0 60 60">
    <path fill="#55acee" d="M0 30a30 30 0 1 1 30 30A30 30 0 0 1 0 30z"/>
    <path fill="#fff" d="M29.1 24.38l.06 1-1-.13a17.07 17.07 0 0 1-10-4.91L16.74 19l-.36 1a6.11 6.11 0 0 0 1.3 6.27c.84.89.65 1-.8.49a2.47 2.47 0 0 0-1-.23 7.59 7.59 0 0 0 .76 2.84 6.78 6.78 0 0 0 2.87 2.71l1 .49h-1.22c-1.18 0-1.22 0-1.09.47a6.34 6.34 0 0 0 3.92 3.47l1.3.44-1.13.68a11.82 11.82 0 0 1-5.62 1.57 6.21 6.21 0 0 0-1.67.2 16 16 0 0 0 4 1.86 17.73 17.73 0 0 0 13.82-1.56 18.42 18.42 0 0 0 7-8.22 21.85 21.85 0 0 0 1.43-6.36c0-1 .06-1.1 1.24-2.27a13.84 13.84 0 0 0 1.47-1.63c.21-.4.19-.4-.88 0-1.78.64-2 .55-1.15-.4a6.16 6.16 0 0 0 1.43-2.27c0-.06-.31 0-.67.23a11.71 11.71 0 0 1-1.85.72l-1.13.36-1-.7a8.54 8.54 0 0 0-1.78-.93 7.17 7.17 0 0 0-3.67.08 6.07 6.07 0 0 0-4.16 6.07z"/>
</symbol><symbol id="r-tw_h" viewBox="0 0 60 60">
    <g fill="none" stroke="#55acee" stroke-miterlimit="10" stroke-width="2">
        <path data-name="path0 fill" class="cls-1" d="M1 30a29 29 0 1 1 29 29A29 29 0 0 1 1 30z"/>
        <path data-name="path1 fill" class="cls-1" d="M29.13 24.57l.06 1-1-.12a16.5 16.5 0 0 1-9.66-4.75l-1.34-1.33-.34 1a5.91 5.91 0 0 0 1.26 6.06c.81.86.63 1-.77.47a2.39 2.39 0 0 0-1-.23 7.34 7.34 0 0 0 .73 2.74A6.55 6.55 0 0 0 19.88 32l1 .47H19.7c-1.14 0-1.18 0-1.05.45a6.13 6.13 0 0 0 3.79 3.36l1.26.43-1.1.66a11.42 11.42 0 0 1-5.44 1.52 6 6 0 0 0-1.66.16 15.43 15.43 0 0 0 3.91 1.8 17.13 17.13 0 0 0 13.31-1.52 17.81 17.81 0 0 0 6.75-7.95 21.12 21.12 0 0 0 1.38-6.14c0-.94.06-1.06 1.2-2.19a13.38 13.38 0 0 0 1.42-1.58c.2-.39.18-.39-.85 0-1.72.61-2 .53-1.12-.39a6 6 0 0 0 1.38-2.19c0-.06-.3 0-.65.23a11.32 11.32 0 0 1-1.79.7l-1.1.35-1-.68a8.26 8.26 0 0 0-1.72-.9 6.93 6.93 0 0 0-3.55.08 5.86 5.86 0 0 0-3.94 5.9z"/>
    </g>
</symbol><symbol id="r-vk" viewBox="0 0 60 60">
    <path fill="#4c6c91" d="M0 30a30 30 0 1 1 30 30A30 30 0 0 1 0 30z"/>
    <path fill="#fff" d="M31.57 39.85a1.64 1.64 0 0 0 .87-.37 1.35 1.35 0 0 0 .26-.82s0-2.52 1.16-2.89 2.68 2.44 4.28 3.51a3.07 3.07 0 0 0 2.13.64l4.27-.06s2.24-.14 1.18-1.86a14.11 14.11 0 0 0-3.18-3.61c-2.68-2.44-2.32-2 .91-6.27 2-2.57 2.75-4.14 2.51-4.81s-1.68-.47-1.68-.47h-4.81a1.11 1.11 0 0 0-.62.11 1.34 1.34 0 0 0-.43.51 27.07 27.07 0 0 1-1.78 3.68c-2.14 3.57-3 3.76-3.35 3.54-.82-.52-.61-2.08-.61-3.18 0-3.46.54-4.9-1-5.28a8.37 8.37 0 0 0-2.29-.22 10.58 10.58 0 0 0-4 .4c-.55.26-1 .85-.71.88a2.17 2.17 0 0 1 1.42.7 4.49 4.49 0 0 1 .48 2.14s.28 4.07-.66 4.58c-.65.35-1.54-.36-3.45-3.6a29.88 29.88 0 0 1-1.72-3.49 1.41 1.41 0 0 0-.4-.53 2 2 0 0 0-.74-.29h-4.57s-.69 0-.94.31 0 .8 0 .8 3.58 8.22 7.63 12.36a11.09 11.09 0 0 0 7.94 3.55z"/>
</symbol><symbol id="r-vk_h" viewBox="0 0 60 60">
    <g fill="none" stroke="#4c6c91" stroke-miterlimit="10" stroke-width="2">
        <path d="M1 30a29 29 0 1 1 29 29A29 29 0 0 1 1 30z"/>
        <path d="M31.52 39.52a1.58 1.58 0 0 0 .84-.36 1.31 1.31 0 0 0 .25-.8s0-2.43 1.12-2.79 2.59 2.35 4.14 3.39a3 3 0 0 0 2.05.61l4.13-.06s2.16-.13 1.14-1.8a13.64 13.64 0 0 0-3.07-3.49c-2.59-2.36-2.24-2 .88-6.06 1.9-2.49 2.66-4 2.42-4.65s-1.62-.46-1.62-.46h-4.65a1.07 1.07 0 0 0-.6.1 1.29 1.29 0 0 0-.41.49 26.17 26.17 0 0 1-1.72 3.56c-2.07 3.45-2.9 3.63-3.24 3.42-.79-.5-.59-2-.59-3.08 0-3.35.52-4.74-1-5.1a8.09 8.09 0 0 0-2.17-.21 10.23 10.23 0 0 0-3.86.39c-.53.25-.94.82-.69.85a2.1 2.1 0 0 1 1.37.68 4.34 4.34 0 0 1 .46 2.07s.27 3.94-.64 4.43c-.63.34-1.49-.35-3.33-3.48a28.88 28.88 0 0 1-1.66-3.38 1.36 1.36 0 0 0-.38-.51A1.93 1.93 0 0 0 20 23h-4.42s-.66 0-.91.3 0 .77 0 .77 3.46 7.95 7.38 12a10.72 10.72 0 0 0 7.67 3.43z"/>
    </g>
</symbol><symbol id="search-icon" viewBox="0 0 20 20">
    <g stroke="currentColor" fill="none" stroke-linecap="round" stroke-linejoin="round" stroke-width="2">
        <circle cx="9" cy="9" r="8"/>
        <path d="M19 19l-4.35-4.35"/>
    </g>
</symbol><symbol id="tick" viewBox="0 0 191.667 191.667">
    <path d="M95.833 0C42.991 0 0 42.99 0 95.833s42.991 95.834 95.833 95.834 95.833-42.991 95.833-95.834S148.676 0 95.833 0zm55.029 79.646l-60.207 60.207a13.463 13.463 0 0 1-9.583 3.969c-3.62 0-7.023-1.409-9.583-3.969l-30.685-30.685a13.464 13.464 0 0 1-3.97-9.583c0-3.621 1.41-7.024 3.97-9.584a13.46 13.46 0 0 1 9.583-3.97c3.62 0 7.024 1.41 9.583 3.971l21.101 21.1 50.623-50.623a13.463 13.463 0 0 1 9.583-3.969c3.62 0 7.023 1.409 9.583 3.969 5.286 5.286 5.286 13.883.002 19.167z"/>
</symbol><symbol id="user-icon" viewBox="0 0 25.33 25.33">
    <g fill="none" stroke="currentColor" stroke-width="2" stroke-linecap="round" stroke-linejoin="round">
        <path d="M20.67 21.1v-1.81a3.83 3.83 0 0 0-4-3.63h-8a3.83 3.83 0 0 0-4 3.63v1.81"/>
        <circle cx="12.67" cy="7.67" r="4"/>
    </g>
    <circle fill="none" stroke="currentColor" stroke-width="2" stroke-miterlimit="10" cx="12.67" cy="12.67" r="11.67"/>
</symbol><symbol id="x-circle" viewBox="0 0 22 22">
    <g fill="none" stroke-linecap="round" stroke-linejoin="round" stroke-width="2">
        <circle cx="11" cy="11" r="10"/>
        <path d="M14 8l-6 6M8 8l6 6"/>
    </g>
</symbol></svg>